<svg
    width="1400"
    height="150"
    viewBox="0 0 1400 150"
    fill="none"
    xmlns="http://www.w3.org/2000/svg"
    >
    <mask
        id="mask0"
        mask-type="alpha"
        maskUnits="userSpaceOnUse"
        x="-293"
        y="0"
        width="662"
        height="150"
    >
        <rect x="-293" width="662" height="150" fill="#C4C4C4" />
    </mask>
    <g mask="url(#mask0)">
        <path
        d="M159.696 118.749L82.6373 40.897V17.8087H59.7842L-17.2744 -60.0431L59.7842 -137.895H82.6373V-160.983L159.696 -238.835L236.754 -160.983V-137.895H259.608L336.666 -60.0431L259.608 17.8087H236.754V40.897L159.696 118.749ZM95.7637 35.4068L159.696 99.997L223.628 35.4068V4.54718H254.173L318.105 -60.0431L254.173 -124.633H223.628V-155.493L159.696 -220.083L95.7637 -155.493V-124.633H65.2185L1.28633 -60.0431L65.2185 4.54718H95.7637V35.4068Z"
        fill="#FFF6E5"
        />
        <path
        d="M194.019 -10.9052H184.675V-20.3462L160.005 -45.2708L135.334 -20.3462V-10.9052H125.993L101.323 14.0161L125.993 38.9407H135.334V48.3817L160.005 73.3063L184.675 48.3817V38.9407H194.019L218.686 14.0161L194.019 -10.9052Z"
        fill="#FFF6E5"
        />
        <path
        d="M41.0727 65.8961H35.2201L35.2202 59.9955L19.7693 44.4175L4.318 59.9955L4.31791 65.8961H-1.53261L-16.9839 81.472L-1.53305 97.05H4.31747L4.31738 102.951L19.7683 118.529L35.2196 102.951L35.2197 97.05H41.0723L56.5215 81.472L41.0727 65.8961Z"
        fill="#FFF6E5"
        />
        <path
        d="M363.373 26.5497H361.297L361.297 24.4569L355.817 18.932L350.338 24.4569L350.337 26.5497H348.263L342.783 32.0739L348.262 37.5988H350.337L350.337 39.6915L355.817 45.2164L361.297 39.6915L361.297 37.5988H363.373L368.852 32.0739L363.373 26.5497Z"
        fill="#FFF6E5"
        />
        <path
        d="M-3.78876 116.06L-5.25649 114.593L-3.77644 113.113L-3.74393 105.332L-11.5262 105.364L-13.0063 106.844L-14.4735 105.377L-22.2553 105.409L-22.2878 113.19L-20.8206 114.657L-22.3006 116.137L-22.3331 123.918L-14.5508 123.885L-13.0708 122.405L-11.603 123.873L-3.82126 123.84L-3.78876 116.06Z"
        fill="#FFF6E5"
        />
        <path
        d="M346.045 99.9221L341.907 95.7844L346.08 91.612L346.171 69.673L324.229 69.7645L320.055 73.9369L315.919 69.8007L293.977 69.8907L293.886 91.8296L298.023 95.9659L293.85 100.138L293.758 122.077L315.701 121.986L319.874 117.813L324.012 121.951L345.954 121.858L346.045 99.9221Z"
        fill="#FFF6E5"
        />
    </g>
    <mask
        id="mask1"
        mask-type="alpha"
        maskUnits="userSpaceOnUse"
        x="1031"
        y="0"
        width="662"
        height="150"
    >
        <rect x="1031" width="662" height="150" fill="#C4C4C4" />
    </mask>
    <g mask="url(#mask1)">
        <path
        d="M1483.7 118.749L1406.64 40.897V17.8087H1383.78L1306.73 -60.0431L1383.78 -137.895H1406.64V-160.983L1483.7 -238.835L1560.75 -160.983V-137.895H1583.61L1660.67 -60.0431L1583.61 17.8087H1560.75V40.897L1483.7 118.749ZM1419.76 35.4068L1483.7 99.997L1547.63 35.4068V4.54718H1578.17L1642.11 -60.0431L1578.17 -124.633H1547.63V-155.493L1483.7 -220.083L1419.76 -155.493V-124.633H1389.22L1325.29 -60.0431L1389.22 4.54718H1419.76V35.4068Z"
        fill="#FFF6E5"
        />
        <path
        d="M1283.17 -12.3909H1274.26V-21.3894L1250.76 -45.1456L1227.26 -21.3894V-12.3909H1218.36L1194.86 11.3621L1218.36 35.1184H1227.26V44.1168L1250.76 67.8731L1274.26 44.1168V35.1184H1283.17L1306.66 11.3621L1283.17 -12.3909Z"
        fill="#FFF6E5"
        />
        <path
        d="M1365.07 65.8961H1359.22L1359.22 59.9955L1343.77 44.4175L1328.32 59.9955L1328.32 65.8961H1322.47L1307.02 81.472L1322.47 97.05H1328.32L1328.32 102.951L1343.77 118.529L1359.22 102.951L1359.22 97.05H1365.07L1380.52 81.472L1365.07 65.8961Z"
        fill="#FFF6E5"
        />
        <path
        d="M1320.21 116.06L1318.74 114.593L1320.22 113.113L1320.26 105.332L1312.47 105.364L1310.99 106.844L1309.53 105.377L1301.74 105.409L1301.71 113.19L1303.18 114.657L1301.7 116.137L1301.67 123.918L1309.45 123.885L1310.93 122.405L1312.4 123.873L1320.18 123.84L1320.21 116.06Z"
        fill="#FFF6E5"
        />
        <path
        d="M1113.3 150L1077.78 114.172V103.547H1067.25L1031.73 67.7185L1067.25 31.8904H1077.78V21.2649L1113.3 -14.5631L1148.81 21.2649V31.8904H1159.34L1194.86 67.7185L1159.34 103.547H1148.81V114.172L1113.3 150ZM1083.83 111.645L1113.3 141.37L1142.76 111.645V97.4434H1156.84L1186.31 67.7185L1156.84 37.9935H1142.76V23.7916L1113.3 -5.93337L1083.83 23.7916V37.9935H1069.75L1040.28 67.7185L1069.75 97.4434H1083.83V111.645Z"
        fill="#FFF6E5"
        />
    </g>
    <mask
        id="mask2"
        mask-type="alpha"
        maskUnits="userSpaceOnUse"
        x="369"
        y="0"
        width="662"
        height="150"
    >
        <rect x="369" width="662" height="150" fill="#C4C4C4" />
    </mask>
    <g mask="url(#mask2)">
        <path
        d="M821.696 118.749L744.637 40.897V17.8087H721.784L644.726 -60.0431L721.784 -137.895H744.637V-160.983L821.696 -238.835L898.754 -160.983V-137.895H921.608L998.666 -60.0431L921.608 17.8087H898.754V40.897L821.696 118.749ZM757.764 35.4068L821.696 99.997L885.628 35.4068V4.54718H916.173L980.105 -60.0431L916.173 -124.633H885.628V-155.493L821.696 -220.083L757.764 -155.493V-124.633H727.219L663.286 -60.0431L727.219 4.54718H757.764V35.4068Z"
        fill="#FFF6E5"
        />
        <path
        d="M856.019 -10.9052H846.675V-20.3462L822.005 -45.2708L797.334 -20.3462V-10.9052H787.993L763.323 14.0161L787.993 38.9407H797.334V48.3817L822.005 73.3063L846.675 48.3817V38.9407H856.019L880.686 14.0161L856.019 -10.9052Z"
        fill="#FFF6E5"
        />
        <path
        d="M621.166 -12.3909H612.264V-21.3894L588.763 -45.1456L565.262 -21.3894V-12.3909H556.363L532.861 11.3621L556.363 35.1184H565.262V44.1168L588.763 67.8731L612.264 44.1168V35.1184H621.166L644.665 11.3621L621.166 -12.3909Z"
        fill="#FFF6E5"
        />
        <path
        d="M703.073 65.8961H697.22L697.22 59.9955L681.769 44.4175L666.318 59.9955L666.318 65.8961H660.467L645.016 81.472L660.467 97.05H666.317L666.317 102.951L681.768 118.529L697.22 102.951L697.22 97.05H703.072L718.522 81.472L703.073 65.8961Z"
        fill="#FFF6E5"
        />
        <path
        d="M1025.37 26.5497H1023.3L1023.3 24.4569L1017.82 18.932L1012.34 24.4569L1012.34 26.5497H1010.26L1004.78 32.0739L1010.26 37.5988H1012.34L1012.34 39.6915L1017.82 45.2164L1023.3 39.6915L1023.3 37.5988H1025.37L1030.85 32.0739L1025.37 26.5497Z"
        fill="#FFF6E5"
        />
        <path
        d="M658.211 116.06L656.744 114.593L658.224 113.113L658.256 105.332L650.474 105.364L648.994 106.844L647.527 105.377L639.745 105.409L639.712 113.19L641.179 114.657L639.699 116.137L639.667 123.918L647.449 123.885L648.929 122.405L650.397 123.873L658.179 123.84L658.211 116.06Z"
        fill="#FFF6E5"
        />
        <path
        d="M451.295 150L415.778 114.172V103.547H405.245L369.729 67.7185L405.245 31.8904H415.778V21.2649L451.295 -14.5631L486.812 21.2649V31.8904H497.345L532.862 67.7185L497.345 103.547H486.812V114.172L451.295 150ZM421.828 111.645L451.295 141.37L480.762 111.645V97.4434H494.84L524.307 67.7185L494.84 37.9935H480.762V23.7916L451.295 -5.93337L421.828 23.7916V37.9935H407.75L378.283 67.7185L407.75 97.4434H421.828V111.645Z"
        fill="#FFF6E5"
        />
        <path
        d="M1008.05 99.9221L1003.91 95.7844L1008.08 91.612L1008.17 69.673L986.229 69.7645L982.055 73.9369L977.919 69.8007L955.977 69.8907L955.886 91.8296L960.023 95.9659L955.85 100.138L955.758 122.077L977.701 121.986L981.874 117.813L986.012 121.951L1007.95 121.858L1008.05 99.9221Z"
        fill="#FFF6E5"
        />
    </g>
</svg>