<svg width="223" height="130" viewBox="0 0 223 130" fill="none" xmlns="http://www.w3.org/2000/svg">
<path d="M88.993 65.3148H91.4546C97.7286 65.3148 103.101 64.5021 103.101 56.7441C103.101 48.9764 96.7633 48.6372 90.893 48.6372H88.993V65.3148ZM88.993 39.7638H90.4265C96.1258 39.7638 98.9092 38.0992 98.9092 31.8959C98.9092 25.799 95.4248 24.2172 90.4893 24.2172H88.993V39.7638ZM77.3267 14.8424H91.847C102.963 14.8424 109.785 19.2146 109.785 31.1146C109.785 35.3995 108.27 40.3054 104.546 42.7086C111.601 43.9686 114.776 51.1197 114.776 57.7041C114.776 69.4263 106.526 74.6739 95.6593 74.6739H77.3267V14.8424Z" fill="black"/>
<path d="M140.636 74.6742H128.98V24.9936H116.909V14.8419H152.705V24.9936H140.636V74.6742Z" fill="black"/>
<path d="M209.842 42.8526V44.3672C209.842 61.2724 201.177 76.261 182.612 76.261C165.157 76.261 154.129 61.5044 154.129 44.9968C154.129 27.959 165.477 13.2591 183.335 13.2591C193.481 13.2591 202.369 18.423 206.974 27.5527L196.655 33.1011C194.269 27.6966 189.204 23.5703 183.005 23.5703C171.729 23.5703 166.189 35.0727 166.189 44.9968C166.189 54.9148 171.815 65.9507 183.088 65.9507C190.382 65.9507 196.476 59.6043 196.729 52.3817H184.044V42.8526H209.842Z" fill="black"/>
<path d="M12.9927 11.292H34.1733L33.6841 38.7762H34.1733C34.638 36.1472 35.9861 33.8818 37.1659 31.6137L47.6647 11.292H71.381L52.6533 42.1203L73.3543 74.6219H48.1207L37.8138 55.4678C36.5608 53.0341 34.638 50.6745 34.1733 48.0734H33.6841L34.1733 74.6219H12.9927V11.292Z" fill="black"/>
<path fill-rule="evenodd" clip-rule="evenodd" d="M1.51739 126.919C2.47604 128.177 4.08499 129.293 6.16737 129.293H216.517C218.605 129.293 220.214 128.172 221.171 126.907C222.123 125.647 222.586 124.092 222.586 122.547V6.77407C222.586 5.23225 222.125 3.68095 221.187 2.42318C220.25 1.16573 218.642 -1.67994e-06 216.517 -1.67994e-06H6.16737C4.04778 -1.67994e-06 2.43992 1.16041 1.50054 2.4111C0.558262 3.66566 0.0874023 5.21997 0.0874023 6.77407V122.547C0.0874023 124.104 0.559914 125.662 1.51739 126.919ZM8.10367 121.277V8.01627H214.569V121.277H8.10367Z" fill="black"/>
<path fill-rule="evenodd" clip-rule="evenodd" d="M218.057 124.551H4.79785V81.2552H218.057V124.551ZM74.1728 89.2855H77.0503L72.4942 94.8261L77.3145 101.294H74.301L70.4564 95.8942H70.4476V101.294H68.088V89.2855H70.4476V94.3412H70.4564L74.1728 89.2855ZM83.3446 92.4878H83.3873L84.895 96.8512H82.0384L83.3446 92.4878ZM80.3833 101.294L81.3573 98.7565H85.5507L86.4541 101.294H88.9497L84.3945 88.9614H82.5894L77.9104 101.294H80.3833ZM96.2737 91.9184C95.829 91.3237 95.2552 90.9479 94.48 90.9479C93.7476 90.9479 93.0273 91.4999 93.0273 92.3047C93.0273 93.1313 93.8383 93.4722 94.7897 93.8722C96.1398 94.4397 97.7727 95.1262 97.7727 97.4878C97.7727 99.905 96.2737 101.617 93.833 101.617C92.1771 101.617 90.9651 100.653 90.1384 99.2684L91.6574 97.793C91.9757 98.7182 92.8145 99.53 93.8121 99.53C94.7669 99.53 95.3616 98.7339 95.3616 97.793C95.3616 96.6406 94.3472 96.2567 93.4495 95.9169L93.4493 95.9168L93.4492 95.9168L93.4441 95.9148L93.4428 95.9143C93.3884 95.8937 93.3344 95.8733 93.2811 95.8528C91.7307 95.2154 90.6058 94.428 90.6058 92.5637C90.6058 90.5799 92.0821 88.9615 94.0981 88.9615C95.1611 88.9615 96.6556 89.5021 97.389 90.3052L96.2737 91.9184ZM99.9362 101.294H102.293V89.2863H99.9362V101.294ZM111.038 89.2855H113.916L109.361 94.8261L114.172 101.294H111.155L107.333 95.8942H107.301V101.294H104.969V89.2855H107.301V94.3412H107.333L111.038 89.2855ZM121.146 99.2916C119.171 99.2916 117.63 96.9878 117.63 95.168C117.63 93.2234 119.085 91.2824 121.146 91.2824C123.192 91.2824 124.647 93.2234 124.647 95.168C124.647 96.9878 123.141 99.2916 121.146 99.2916ZM121.146 88.9612C117.641 88.9612 115.222 91.9059 115.222 95.2674C115.222 98.7178 117.641 101.617 121.146 101.617C124.647 101.617 127.069 98.7178 127.069 95.2674C127.069 91.9059 124.647 88.9612 121.146 88.9612ZM131.527 94.8057H131.824C133.12 94.8057 134.033 94.4281 134.033 92.9658C134.033 91.4895 133.087 91.2114 131.835 91.2114H131.527V94.8057ZM137.303 101.294H134.469L131.548 96.4459H131.527V101.294H129.17V89.2851H132.357C134.712 89.2851 136.358 90.3437 136.358 92.8978C136.358 94.4281 135.516 95.9462 133.915 96.2305L137.303 101.294ZM140.699 88.9614H139.033V101.294H141.357V93.1452H141.378L147.706 101.53H149.393V89.2858H147.047V97.3535H147.014L140.699 88.9614ZM15.6996 117.509H16.0728C17.0581 117.509 17.897 117.392 17.897 116.171C17.897 114.945 16.8985 114.906 15.9882 114.906H15.6996V117.509ZM15.6996 113.526H15.9228C16.8026 113.526 17.2508 113.271 17.2508 112.305C17.2508 111.343 16.6875 111.104 15.9228 111.104H15.6996V113.526ZM13.8736 109.642H16.146C17.8647 109.642 18.9381 110.322 18.9381 112.186C18.9381 112.841 18.7044 113.601 18.1193 113.987C19.2241 114.185 19.7133 115.311 19.7133 116.326C19.7133 118.147 18.4271 118.975 16.7311 118.975H13.8736V109.642ZM23.2378 109.642H21.4005V115.227C21.4005 117.509 22.378 119.213 24.892 119.213C27.3771 119.213 28.3546 117.509 28.3546 115.227V109.642H26.5261V114.864C26.5261 116.011 26.4336 117.631 24.892 117.631C23.3311 117.631 23.2378 116.011 23.2378 114.864V109.642ZM34.7761 111.68C34.416 111.217 33.9809 110.927 33.374 110.927C32.8037 110.927 32.2177 111.375 32.2177 111.979C32.2177 112.626 32.8522 112.893 33.5961 113.207C34.6501 113.651 35.9237 114.187 35.9237 116.028C35.9237 117.891 34.7761 119.213 32.8673 119.213C31.5803 119.213 30.6359 118.465 29.9994 117.392L31.1696 116.246C31.412 116.973 32.0581 117.613 32.8438 117.613C33.5989 117.613 34.0445 116.981 34.0445 116.266C34.0445 115.35 33.2237 115.047 32.5103 114.783L32.42 114.75C31.2315 114.241 30.349 113.656 30.349 112.185C30.349 110.638 31.4966 109.379 33.0679 109.379C33.919 109.379 35.063 109.802 35.6254 110.422L34.7761 111.68ZM37.6333 118.975H39.4479V109.642H37.6333V118.975ZM41.5187 109.38H42.8232L47.7404 115.915H47.77V109.642H49.5864V119.163H48.2801L43.3525 112.621H43.3438V118.975H41.5187V109.38ZM53.4815 113.27V111.217H56.4846V109.642H51.6564V118.974H56.4846V117.392H53.4815V114.865H56.3704V113.27H53.4815ZM62.8352 111.68C62.5064 111.217 62.0382 110.927 61.4339 110.927C60.8401 110.927 60.2855 111.375 60.2855 111.979C60.2855 112.626 60.92 112.893 61.6639 113.207C62.7178 113.651 63.9914 114.187 63.9914 116.028C63.9914 117.891 62.8352 119.213 60.9351 119.213C59.6289 119.213 58.6958 118.465 58.0462 117.392L59.2243 116.246C59.4789 116.973 60.1276 117.613 60.9133 117.613C61.6554 117.613 62.1236 116.981 62.1236 116.266C62.1236 115.362 61.3081 115.055 60.6154 114.794L60.5475 114.769L60.4982 114.75C59.2993 114.241 58.4063 113.656 58.4063 112.185C58.4063 110.638 59.5635 109.379 61.147 109.379C61.9649 109.379 63.1212 109.802 63.6845 110.422L62.8352 111.68ZM68.6619 110.927C69.2889 110.927 69.7449 111.217 70.0972 111.68L70.9238 110.422C70.3719 109.802 69.2243 109.379 68.396 109.379C66.8177 109.379 65.691 110.638 65.691 112.185C65.691 113.656 66.5377 114.241 67.7489 114.75L67.8551 114.79C68.5564 115.051 69.3743 115.357 69.3743 116.266C69.3743 116.981 68.9165 117.613 68.1623 117.613C67.3897 117.613 66.7305 116.973 66.4968 116.246L65.3074 117.392C65.9561 118.465 66.9014 119.213 68.1954 119.213C70.0972 119.213 71.2413 117.891 71.2413 116.028C71.2413 114.187 69.9722 113.651 68.9219 113.207C68.1806 112.893 67.5484 112.626 67.5484 111.979C67.5484 111.375 68.0881 110.927 68.6619 110.927ZM75.8184 115.707H72.8031V114.279H75.8184V115.707ZM78.9811 118.975H80.8088V111.218H82.6976V109.642H77.1142V111.218H78.9811V118.975ZM85.9232 111.217V113.27H88.8226V114.865H85.9232V117.392H88.9194V118.974H84.099V109.642H88.9194V111.217H85.9232ZM95.0628 111.117C95.8493 111.117 96.6132 111.483 97.1224 112.127V109.917C96.4868 109.584 95.7848 109.38 95.0541 109.38C92.3047 109.38 90.4465 111.719 90.4465 114.387C90.4465 116.944 92.3893 119.212 95.0105 119.212C95.7752 119.212 96.4449 118.988 97.1224 118.673V116.489C96.6132 117.089 95.8284 117.487 95.0541 117.487C93.3755 117.487 92.3143 115.915 92.3143 114.343C92.3143 112.737 93.3127 111.117 95.0628 111.117ZM104.256 113.323V109.641H106.083V118.974H104.256V114.801H100.894V118.974H99.066V109.641H100.894V113.323H104.256ZM109.456 109.38H108.16V118.975H109.967V112.621H109.976L114.913 119.163H116.231V109.642H114.413V115.915H114.36L109.456 109.38ZM119.721 114.226C119.721 115.624 120.911 117.423 122.47 117.423C124.01 117.423 125.211 115.624 125.211 114.226C125.211 112.699 124.063 111.18 122.47 111.18C120.858 111.18 119.721 112.699 119.721 114.226ZM117.833 114.28C117.833 111.68 119.733 109.379 122.47 109.379C125.19 109.379 127.068 111.68 127.068 114.28C127.068 116.972 125.19 119.213 122.47 119.213C119.733 119.213 117.833 116.972 117.833 114.28ZM133.119 117.392H130.551V109.642H128.694V118.974H133.119V117.392ZM135.869 114.226C135.869 115.624 137.058 117.423 138.608 117.423C140.138 117.423 141.336 115.624 141.336 114.226C141.336 112.699 140.2 111.18 138.608 111.18C137.006 111.18 135.869 112.699 135.869 114.226ZM134 114.28C134 111.68 135.89 109.379 138.608 109.379C141.336 109.379 143.225 111.68 143.225 114.28C143.225 116.972 141.336 119.213 138.608 119.213C135.89 119.213 134 116.972 134 114.28ZM153.12 114.241V114.004H149.074V115.487H151.049C151.017 116.625 150.074 117.613 148.915 117.613C147.164 117.613 146.283 115.89 146.283 114.344C146.283 112.803 147.164 111.003 148.915 111.003C149.882 111.003 150.668 111.643 151.049 112.49L152.662 111.599C151.921 110.199 150.552 109.379 148.968 109.379C146.176 109.379 144.404 111.68 144.404 114.344C144.404 116.912 146.133 119.213 148.851 119.213C151.751 119.213 153.12 116.881 153.12 114.241ZM153.884 109.642H155.985L157.643 112.888L159.414 109.642H161.548L158.607 114.685V118.975H156.78V114.685L153.884 109.642ZM175.326 114.241V114.004H171.307V115.487H173.29C173.249 116.625 172.292 117.613 171.166 117.613C169.382 117.613 168.514 115.89 168.514 114.344C168.514 112.803 169.382 111.003 171.134 111.003C172.101 111.003 172.896 111.643 173.27 112.49L174.883 111.599C174.161 110.199 172.771 109.379 171.188 109.379C168.406 109.379 166.633 111.68 166.633 114.344C166.633 116.912 168.342 119.213 171.082 119.213C173.967 119.213 175.326 116.881 175.326 114.241ZM178.778 113.929H179.033C180.032 113.929 180.72 113.656 180.72 112.49C180.72 111.342 179.998 111.116 179.033 111.116H178.778V113.929ZM183.29 118.975H181.082L178.821 115.198H178.778V118.975H176.974V109.642H179.427C181.272 109.642 182.546 110.466 182.546 112.446C182.546 113.656 181.888 114.834 180.656 115.043L183.29 118.975ZM188.791 117.423C187.251 117.423 186.048 115.624 186.048 114.226C186.048 112.699 187.195 111.18 188.791 111.18C190.404 111.18 191.529 112.699 191.529 114.226C191.529 115.624 190.35 117.423 188.791 117.423ZM188.791 109.379C186.048 109.379 184.171 111.68 184.171 114.28C184.171 116.972 186.048 119.213 188.791 119.213C191.516 119.213 193.396 116.972 193.396 114.28C193.396 111.68 191.516 109.379 188.791 109.379ZM195 109.642H196.803V114.864C196.803 116.011 196.911 117.631 198.47 117.631C199.998 117.631 200.095 116.011 200.095 114.864V109.642H201.921V115.227C201.921 117.509 200.956 119.213 198.47 119.213C195.956 119.213 195 117.509 195 115.227V109.642ZM206.147 113.966H205.774V111.146H206.094C207.113 111.146 207.814 111.321 207.814 112.525C207.814 113.729 207.229 113.966 206.147 113.966ZM203.96 118.975H205.774V115.487H206.688C208.578 115.487 209.68 114.528 209.68 112.542C209.68 110.422 208.375 109.642 206.434 109.642H203.96V118.975Z" fill="black"/>
</svg>
