<svg width="99" height="19" viewBox="0 0 99 19" fill="none" xmlns="http://www.w3.org/2000/svg">
<path fill-rule="evenodd" clip-rule="evenodd" d="M51.139 0.0798946L51.0592 0.15979V5.45998C51.0592 9.00802 51.0688 10.859 51.0883 11.0588C51.323 13.4652 52.8725 14.5925 55.3504 14.1595C55.7479 14.0901 55.8459 14.0505 55.9465 13.9184L56.0202 13.8218L56.0281 12.9313C56.0389 11.753 56.0561 11.7904 55.5528 11.8945C54.5276 12.1067 53.9351 11.6571 53.873 10.6193C53.8354 9.99097 53.8441 4.86981 53.8829 4.75871C53.9532 4.55839 53.9774 4.55285 54.8419 4.53769L55.6143 4.52399L55.7243 4.45109C55.9325 4.31317 55.9383 4.28255 55.9383 3.31914V2.46975L55.8613 2.35341C55.7205 2.14084 55.682 2.13355 54.7023 2.13267L53.8491 2.13209L53.8412 1.14594L53.8336 0.159499L53.7441 0.0798946L53.6549 0H52.4369H51.2189L51.139 0.0798946ZM5.72511 1.85946C1.4965 2.20819 -1.02049 6.21345 0.397212 10.3385C1.79392 14.4012 7.00926 15.7361 10.3596 12.8882C11.2898 12.0974 12.0056 10.7415 11.7376 10.2779C11.6271 10.0866 11.612 10.0843 10.5086 10.0927L9.52479 10.1L9.40174 10.1685C9.30726 10.2213 9.23757 10.2986 9.10111 10.5027C7.64113 12.6849 3.90793 12.233 3.0597 9.77111C3.00634 9.61599 2.92353 9.20747 2.92353 9.09871C2.92353 9.04914 3.01188 9.04768 5.92339 9.04739C10.0654 9.0471 10.3966 9.0124 11.1524 8.49979C12.285 7.73204 12.1946 5.72912 10.9515 4.04724C9.81317 2.50707 7.84845 1.6845 5.72511 1.85946ZM29.2463 1.86033C25.1568 2.21928 22.6343 6.04287 23.8479 10.0432C24.8719 13.4186 28.476 15.2238 31.8703 14.0621C33.6461 13.4544 35.3394 11.7417 35.3414 10.5511C35.3423 10.1131 35.2723 10.0863 34.1264 10.0863C32.8956 10.0863 32.923 10.0779 32.6066 10.5648C32.1255 11.3049 31.1011 11.8472 30.0669 11.909C28.2905 12.0155 26.6273 10.7756 26.4946 9.24596L26.4777 9.04768L29.4679 9.04739C33.6916 9.04681 34.0234 9.00861 34.7871 8.43447C36.2214 7.35618 35.3808 4.29859 33.2507 2.84473C32.1491 2.09273 30.6885 1.73378 29.2463 1.86033ZM42.469 1.85916C39.5974 2.11839 37.8409 3.85217 37.4437 6.81995C37.3991 7.15265 37.3755 13.3684 37.4184 13.5268C37.4706 13.7207 37.6076 13.8898 37.7864 13.9811L37.9485 14.0636H38.7979H39.647L39.7963 13.9816C39.9625 13.8904 40.1086 13.7186 40.1514 13.5641C40.1701 13.4967 40.1797 12.454 40.18 10.4925C40.18 6.76251 40.1984 6.56102 40.6086 5.76207C41.6073 3.81834 44.5853 3.86004 45.5828 5.83147C45.973 6.60301 45.9785 6.66366 45.9841 10.3837C45.9893 13.9472 45.9677 13.6387 46.2258 13.8755C46.4252 14.0583 46.4576 14.0636 47.3962 14.0636C48.3238 14.0636 48.3302 14.0624 48.5381 13.8746C48.7781 13.658 48.7606 13.93 48.7638 10.3572C48.7673 6.92784 48.7644 6.84998 48.6107 6.12014C47.9937 3.18851 45.6619 1.57078 42.469 1.85916ZM63.2501 1.97988C60.4588 2.33679 58.5891 4.11081 58.0631 6.90189L57.9911 7.28474L57.982 12.6899C57.9733 18.063 57.9736 18.0957 58.0284 18.203C58.1701 18.4808 58.2768 18.505 59.3551 18.505C60.2806 18.505 60.3838 18.494 60.5375 18.3782C60.7486 18.2187 60.7355 18.4065 60.7355 15.5518V13.006L60.9335 13.1894C62.3124 14.4663 64.6763 14.8071 66.6428 14.0125C71.3391 12.1152 71.8674 5.56729 67.5406 2.88439C66.3532 2.14813 64.6851 1.79647 63.2501 1.97988ZM77.7645 1.97201C73.8873 2.37061 71.2989 6.00379 72.2319 9.73699C73.5476 15.0016 80.7387 16.1575 83.7584 11.5897C86.6326 7.24217 83.0119 1.43228 77.7645 1.97201ZM91.9649 1.95655C91.9197 1.96268 91.7721 1.98105 91.6368 1.99738C88.8965 2.32716 86.9589 4.28372 86.5209 7.16286C86.4503 7.62648 86.4293 17.9595 86.4985 18.1414C86.6241 18.4715 86.7486 18.505 87.8511 18.5053C88.9428 18.5053 89.0303 18.4846 89.177 18.1925L89.2449 18.0572V15.5457V13.0346L89.4569 13.2168C91.794 15.2296 95.7042 14.6963 97.694 12.0939C100.456 8.48171 98.6195 3.19289 94.2346 2.13005C93.6362 1.98484 92.4343 1.89299 91.9649 1.95655ZM12.9107 2.17145C12.7903 2.22394 12.6777 2.38286 12.6623 2.52194C12.6489 2.64499 12.7605 2.96545 14.4812 7.73612C15.251 9.87054 15.7586 11.3122 16.1788 12.559C16.6285 13.8921 16.7089 13.9848 17.472 14.0542C18.1269 14.1137 18.5952 14.0257 18.8506 13.7947C19.0177 13.6437 19.0848 13.4906 19.4181 12.4998C19.8001 11.3638 20.32 9.8825 20.937 8.17292C21.3726 6.96633 21.8794 5.55621 22.6066 3.52851C23.1139 2.11343 23.1236 2.12568 21.5163 2.13792L20.4585 2.1458L20.3097 2.22773C20.0202 2.38752 20.0998 2.18837 19.1431 5.15265C18.2357 7.96443 17.8175 9.24771 17.7992 9.27862C17.7791 9.31157 17.7543 9.2378 16.9565 6.76542C16.5876 5.62269 16.126 4.19712 15.9304 3.59732L15.5749 2.50678L15.4332 2.36536C15.2017 2.13384 15.1903 2.13209 14.0094 2.13326C13.2177 2.13413 12.9775 2.1423 12.9107 2.17145ZM6.68181 4.2671C8.54039 4.49395 9.82891 6.31988 8.48586 6.82345C8.3564 6.87185 8.21323 6.87506 5.7184 6.88206L3.0874 6.88964V6.8319C3.0874 6.70448 3.20754 6.31346 3.3198 6.07552C3.91464 4.81528 5.25711 4.09302 6.68181 4.2671ZM30.4987 4.30588C32.1998 4.62925 33.2609 6.32862 32.0639 6.81295L31.9114 6.87477L29.2667 6.88206C27.7216 6.88643 26.6223 6.87943 26.6223 6.86514C26.6223 6.85173 26.6524 6.72198 26.6891 6.57677C26.9451 5.56816 27.7505 4.73305 28.7815 4.40648C29.0075 4.33504 29.1454 4.30675 29.5333 4.25252C29.6901 4.23065 30.2727 4.26272 30.4987 4.30588ZM78.9207 4.49629C81.5578 4.95612 82.8338 8.17758 81.2592 10.3995C79.5447 12.8188 75.9619 12.2598 75.046 9.43024C74.1885 6.78059 76.3363 4.04578 78.9207 4.49629ZM65.1361 4.65608C67.0851 5.11124 68.1421 7.17656 67.5377 9.34831C66.6568 12.512 62.089 12.5925 60.9711 9.46407C60.5807 8.3712 60.7757 6.82666 61.4225 5.88833C62.1418 4.84473 63.7123 4.32337 65.1361 4.65608ZM93.368 4.60796C95.123 4.86864 96.1736 6.21403 96.1725 8.20033C96.1713 9.85596 95.3502 11.0978 93.938 11.5792C91.6467 12.3601 89.3621 10.7829 89.2814 8.36449C89.2091 6.19333 90.3095 4.82403 92.32 4.58289C92.5445 4.55606 93.109 4.56947 93.368 4.60796Z" fill="black"/>
</svg>
