<svg width="99" height="28" viewBox="0 0 99 28" fill="none" xmlns="http://www.w3.org/2000/svg">
<path d="M57.4785 10.8846V21.7691H59.1705H60.8626V17.7385C60.8626 15.5212 60.8777 12.92 60.8979 11.9604L60.9282 10.2178L61.3626 9.98551C61.903 9.70266 62.4839 9.49557 63.2668 9.31374C63.7567 9.19758 63.989 9.17232 64.5497 9.17232C65.1457 9.16727 65.2669 9.18242 65.5194 9.28344C66.0447 9.49557 66.4437 9.91479 66.6811 10.5007L66.7973 10.7835L66.8125 16.2233L66.8226 21.6681H68.2519C69.0348 21.6681 69.7975 21.6529 69.944 21.6327L70.2066 21.6024L70.1915 15.5869C70.1763 8.81876 70.2117 9.40466 69.7773 8.51066C69.252 7.42978 68.358 6.73277 67.0347 6.37921C66.57 6.25294 66.4791 6.24284 65.3073 6.24284C64.2012 6.23779 64.0143 6.25294 63.5395 6.35395C62.8021 6.51558 61.8879 6.82873 61.2919 7.12168C61.0141 7.25805 60.7868 7.36412 60.7818 7.35907C60.7818 7.35402 60.6151 5.77816 60.4131 3.86389C60.211 1.94458 60.0342 0.292953 60.0191 0.186886L59.9888 4.25325e-06H58.7362H57.4785V10.8846Z" fill="black"/>
<path d="M44.1695 3.95984L42.5533 4.57605L42.5129 8.61167C42.4927 10.834 42.4826 13.809 42.4927 15.2283C42.5078 17.6779 42.5179 17.8244 42.6189 18.2184C42.8412 19.0669 43.1695 19.678 43.6847 20.2185C44.1342 20.6832 44.5938 20.966 45.3312 21.2084C46.296 21.5317 46.8212 21.5873 48.6042 21.5519C49.4325 21.5368 50.1194 21.5165 50.1245 21.5064C50.1346 21.5014 50.1548 20.87 50.1699 20.1124L50.1952 18.7386H49.1497C47.8617 18.7386 47.5132 18.6881 47.0384 18.4608C46.6243 18.2588 46.3717 18.0012 46.1697 17.5769L46.0384 17.2991L45.9929 13.3696C45.9676 11.2078 45.9575 9.43495 45.9676 9.4198C45.9777 9.4097 46.9273 9.38444 48.0738 9.36424L50.1548 9.32888V8.33892C50.1548 7.79343 50.1699 7.12672 50.1901 6.85397L50.2204 6.36404H48.0688H45.9121V4.84879C45.9121 3.6669 45.8969 3.33354 45.8515 3.33859C45.8161 3.34364 45.0585 3.62144 44.1695 3.95984Z" fill="black"/>
<path d="M77.1414 6.01049C75.6868 6.17212 74.4746 6.76812 73.52 7.78334C72.7977 8.55106 72.2421 9.57133 72.0755 10.4401C71.636 12.7433 71.6158 15.7687 72.0249 17.5112C72.2169 18.3194 72.8028 19.2639 73.6412 20.1074C74.4544 20.9307 75.3231 21.4458 76.3687 21.7186C76.9849 21.8752 78.2728 21.9156 79.0001 21.7994C80.3841 21.5721 81.4902 21.0014 82.3994 20.0518C83.2226 19.1881 83.7126 18.1679 83.9803 16.7536C84.056 16.3496 84.0712 15.9657 84.0712 13.8645C84.0712 11.7735 84.0611 11.3593 83.9803 10.8593C83.7883 9.64204 83.6015 9.13191 83.0913 8.45005C82.268 7.33886 80.9902 6.46002 79.7174 6.12666C79.2981 6.02059 79.0911 5.99534 78.3637 5.98524C77.894 5.97514 77.3384 5.98524 77.1414 6.01049ZM78.7022 9.23798C79.778 9.51577 80.48 10.1976 80.8134 11.2987C80.9195 11.6523 80.9245 11.7634 80.9296 13.8746L80.9397 16.0869L80.778 16.5718C80.3033 17.9759 79.2628 18.6982 77.8334 18.6224C76.6717 18.5568 75.6919 17.9658 75.2625 17.0567C75.0807 16.6728 75.0251 16.2233 74.9494 14.5767C74.8837 12.9806 74.9443 11.7432 75.1262 11.1876C75.4595 10.1572 76.1717 9.45011 77.1111 9.22282C77.5455 9.11676 78.2526 9.12181 78.7022 9.23798Z" fill="black"/>
<path d="M19.9003 6.18728C19.2942 6.27314 18.587 6.42971 18.0567 6.59134C16.9859 6.91459 15.8899 8.00558 15.2333 9.39961C14.6221 10.6825 14.3696 12.0159 14.3746 13.9151C14.3797 17.3547 15.3798 19.9508 17.097 20.9812C17.693 21.3448 18.784 21.6933 19.8245 21.855C20.6023 21.9812 22.5216 21.9762 23.3348 21.855C24.1935 21.7236 25.1127 21.5014 25.9108 21.2337L26.6179 21.0014V19.4861C26.6179 18.0668 26.6128 17.9709 26.532 17.9961C26.4815 18.0113 26.229 18.1072 25.9764 18.2083C24.2187 18.8851 22.1024 19.0669 20.3296 18.683C19.3699 18.476 18.7335 17.981 18.3193 17.1173C18.0668 16.592 17.991 16.3142 17.9355 15.7687L17.9001 15.405L18.5113 15.4C18.8446 15.3949 20.971 15.3747 23.2338 15.3596L27.3502 15.3293L27.3906 14.5717C27.4412 13.6575 27.3654 12.1018 27.229 11.1876C26.9866 9.57133 26.532 8.46015 25.8097 7.72778C25.1228 7.03076 24.0722 6.51053 22.8297 6.25294C22.1933 6.12161 20.5922 6.08626 19.9003 6.18728ZM21.764 9.17232C22.7843 9.39961 23.4712 10.0865 23.7439 11.1522C23.8601 11.6119 23.8854 12.7685 23.7793 12.7988C23.7439 12.814 22.4206 12.8342 20.8397 12.8493L17.9658 12.8746L18.0011 12.4756C18.087 11.4401 18.4759 10.4653 19.0366 9.89964C19.7588 9.16222 20.6478 8.92483 21.764 9.17232Z" fill="black"/>
<path d="M6.6671 6.44991C5.69734 6.55093 4.55585 6.89439 3.59619 7.37422L2.91938 7.71262L2.54057 7.2429L2.16176 6.76812H1.08088H0V14.3494V21.9307L0.772778 21.9004C1.192 21.8853 1.96477 21.855 2.48501 21.8398L3.43457 21.8095L3.44467 16.0667L3.45982 10.329L3.87399 10.1219C4.35887 9.87943 4.88921 9.70265 5.70744 9.51072C6.52568 9.31879 7.40453 9.31374 7.8793 9.49052C8.26317 9.63699 8.7531 10.0865 8.92988 10.4552C9.19757 11.0209 9.19252 10.8643 9.19252 16.5768V21.8701H10.8846H12.5766V16.0111C12.5766 10.8643 12.5665 10.1017 12.4958 9.76326C12.1119 7.8894 10.728 6.69741 8.66218 6.46507C8.23286 6.41961 7.05602 6.40951 6.6671 6.44991Z" fill="black"/>
<path d="M28.0726 6.46508L27.3301 6.49033L29.7999 10.2482C31.1637 12.3139 32.2748 14.0161 32.2748 14.0363C32.2748 14.0514 31.1637 15.7384 29.7999 17.779C28.4413 19.8144 27.3351 21.4913 27.3402 21.4964C27.3452 21.4964 28.2847 21.5166 29.4312 21.5368L31.5071 21.5671L33.9972 17.8446C35.366 15.794 36.4872 14.0817 36.4872 14.0413C36.4923 14.0009 35.3559 12.2634 33.9669 10.1875L31.4465 6.41457L30.1282 6.42467C29.406 6.42973 28.4817 6.44993 28.0726 6.46508Z" fill="black"/>
<path d="M91.7484 6.53579C90.617 6.72772 89.6473 7.1621 88.9705 7.78335C88.8442 7.89952 88.7331 7.98538 88.723 7.97528C88.7129 7.96518 88.6169 7.67223 88.5058 7.32372L88.3088 6.69237L86.6319 6.67722C85.642 6.67217 84.955 6.68227 84.955 6.71257C84.955 6.73783 85.0358 7.09138 85.1318 7.49545L85.3086 8.23792V17.2941C85.3086 22.2742 85.2934 26.4209 85.2783 26.5118C85.2126 26.8401 84.8843 27.0371 84.5964 26.921C84.2984 26.7947 84.2732 26.6735 84.258 25.3148L84.2429 24.0925H83.662H83.0812L83.0963 25.4158L83.1115 26.7442L83.2529 27.0321C83.5155 27.5624 84.0408 27.8756 84.6974 27.8907C84.8793 27.8958 85.8288 27.8604 86.7986 27.815C87.7734 27.7695 88.6169 27.7291 88.6826 27.7291H88.7937V24.3703C88.7937 22.5217 88.8038 21.0115 88.8139 21.0115C88.8189 21.0115 89.0866 21.1327 89.4048 21.2842C89.723 21.4358 90.2332 21.6428 90.5362 21.7489L91.0918 21.9459H91.9504C92.6525 21.9408 92.9 21.9206 93.3142 21.8297C94.7183 21.5166 95.8295 20.9913 96.5214 20.3094C96.8649 19.966 97.4963 19.0619 97.7741 18.5113C98.1731 17.7133 98.4509 16.7486 98.6226 15.5818C98.7337 14.8343 98.7539 12.6473 98.6529 11.7937C98.5266 10.7128 98.2387 9.90975 97.668 9.05616C96.8851 7.87931 95.4153 6.81864 94.2486 6.5863C93.6728 6.47518 92.2838 6.44488 91.7484 6.53579ZM92.7939 9.62185C93.2081 9.70772 93.4707 9.87945 93.8849 10.329C94.2233 10.6977 94.5011 11.2179 94.6274 11.718C94.789 12.3443 94.8597 14.5565 94.7537 15.4556C94.6173 16.5465 94.2385 17.486 93.7233 18.0113C93.4404 18.2992 93.3798 18.3345 92.9859 18.4558C92.3697 18.6376 92.0262 18.6881 91.4353 18.6881C90.5463 18.6881 89.7634 18.4608 89.0816 18.0113L88.7937 17.8194V14.2232V10.627L89.1624 10.4148C90.4049 9.70772 91.7787 9.40467 92.7939 9.62185Z" fill="black"/>
<path d="M36.4923 7.75304C36.0276 8.4349 35.6589 9.0107 35.669 9.03595C35.7044 9.11677 37.6944 12.1776 37.7045 12.1624C37.7096 12.1523 38.5278 10.9401 39.5228 9.47032C40.5178 7.99548 41.3765 6.73277 41.427 6.65196L41.5229 6.51559H39.4268H37.3308L36.4923 7.75304Z" fill="black"/>
<path d="M36.6489 17.4304C35.8306 18.6578 35.6084 19.0265 35.6437 19.0972C35.6639 19.1477 36.0478 19.7235 36.4923 20.3801L37.3004 21.5772L38.5076 21.5469C39.1743 21.5317 40.144 21.5166 40.6693 21.5166C41.3562 21.5166 41.6239 21.5014 41.6088 21.461C41.5785 21.3701 37.76 15.8647 37.7247 15.8596C37.7095 15.8596 37.2246 16.5668 36.6489 17.4304Z" fill="black"/>
<path d="M63.1759 22.2186C62.9082 22.3904 62.7314 22.7086 62.7314 23.0268C62.7314 23.2793 62.8172 23.4561 63.0445 23.6733C63.3577 23.9713 63.6809 24.0167 64.0699 23.8147C64.2971 23.6884 64.3173 23.6884 64.4739 23.7642C64.585 23.8147 64.7871 23.84 65.0497 23.84H65.4588V23.4611V23.0823H65.1053C64.8325 23.0823 64.7416 23.0621 64.7214 23.0066C64.6962 22.951 64.6103 22.9308 64.3729 22.9308C64.1557 22.9308 64.0396 22.9561 63.9941 23.0066C63.9234 23.0924 63.6607 23.1076 63.6153 23.0318C63.5951 23.0015 63.6102 22.946 63.6405 22.9055C63.691 22.8449 63.8628 22.8298 64.4992 22.8298C64.9386 22.8298 65.3326 22.8146 65.378 22.7995C65.4386 22.7742 65.4588 22.6934 65.4588 22.4207V22.0722H64.4335H63.4082L63.1759 22.2186Z" fill="black"/>
<path d="M72.8836 22.6732C72.631 22.8096 72.4795 23.1227 72.4795 23.5217V23.8399H72.9846H73.4897V23.648C73.4897 23.3753 73.5553 23.3349 73.9796 23.3349H74.3483V22.956V22.5772H73.7018C73.1715 22.5772 73.03 22.5924 72.8836 22.6732Z" fill="black"/>
<path d="M77.0353 23.9561C76.9495 24.0925 76.9495 24.0925 76.5201 24.0622C76.2221 24.042 75.9797 24.0571 75.7272 24.1076C75.3635 24.1885 74.6412 24.4865 74.5806 24.5875C74.5402 24.6531 74.9392 25.4714 74.9948 25.4461C76.0454 24.9107 76.2626 24.8653 76.6868 25.0673C77.2525 25.3501 77.404 25.8502 77.1161 26.532C76.9949 26.8149 76.7929 27.0018 76.5201 27.0725C76.1161 27.1836 75.712 26.9462 75.712 26.6028V26.4512L76.0151 26.4815L76.3181 26.5068V26.0825V25.6582H75.7322C74.7877 25.6582 74.5806 25.8249 74.616 26.5421C74.6463 27.1785 74.914 27.6533 75.3787 27.8806C75.5655 27.9665 75.707 27.9867 76.2525 27.9968C76.8838 28.0069 76.9091 28.0018 77.2323 27.8503C77.6465 27.6533 77.9041 27.3957 78.091 27.0018C78.4597 26.2138 78.394 25.3198 77.9344 24.739L77.7879 24.5572L78.0607 24.2087C78.3789 23.8147 78.4243 23.85 77.6162 23.8298C77.1161 23.8147 77.1161 23.8147 77.0353 23.9561Z" fill="black"/>
<path d="M67.762 24.0268C67.171 24.1632 66.5447 24.6026 66.3427 25.0269L66.2568 25.2138L66.474 25.436L66.6912 25.6582L66.6053 25.835C66.5346 25.9815 66.5195 26.1734 66.5195 26.921V27.8301H67.0448H67.565L67.5953 27.4109C67.6155 27.1836 67.6307 26.7694 67.6307 26.4967C67.6307 26.0017 67.6307 25.9967 67.8024 25.7845L67.9792 25.5724L67.7519 25.4108C67.6256 25.3249 67.5296 25.2239 67.5397 25.1936C67.5751 25.0926 67.9893 24.9006 68.1711 24.9006C68.3883 24.9006 68.6004 25.0117 68.7115 25.1734C68.7823 25.2845 68.7924 25.4764 68.7924 26.5674V27.8301H69.3479H69.9035V26.4512C69.9035 24.9259 69.8884 24.84 69.55 24.5067C69.151 24.1076 68.3479 23.8905 67.762 24.0268Z" fill="black"/>
<path d="M70.4187 24.3753L70.4339 24.7592L70.7268 24.9663L71.0147 25.1683L71.1562 25.037C71.4794 24.7289 71.3986 24.9713 71.0501 25.3501C70.7369 25.6986 70.7117 25.7744 70.6763 26.3957C70.641 27.0169 70.6915 27.1987 70.9895 27.4664C71.3936 27.8452 71.5703 27.9059 72.2269 27.9059C72.7926 27.9059 72.8179 27.9008 73.131 27.7291C73.3432 27.618 73.5099 27.4765 73.621 27.325L73.7927 27.0977V26.3249C73.7927 25.6633 73.7775 25.5269 73.6967 25.3602C73.6412 25.2592 73.5654 25.143 73.52 25.1077C73.4543 25.0521 73.4897 24.9865 73.7978 24.6178L74.1513 24.1935H73.5503H72.9492L72.6462 24.6481L72.3431 25.1026L72.3684 24.8349C72.3987 24.4612 72.2825 24.2288 72.0199 24.1228C71.7774 24.0218 71.4693 24.0218 71.2521 24.1127C71.1057 24.1733 71.0501 24.1682 70.7824 24.0874C70.6208 24.0369 70.4642 23.9915 70.444 23.9915C70.4238 23.9915 70.4086 24.1632 70.4187 24.3753ZM72.3482 25.4663C72.3785 25.532 72.4795 25.6178 72.5653 25.6582L72.732 25.734V26.2542C72.732 26.7391 72.7219 26.7846 72.6058 26.8957C72.5098 26.9967 72.434 27.022 72.2269 27.022C72.0098 27.022 71.9491 27.0018 71.838 26.8805C71.7168 26.7492 71.7118 26.724 71.7421 26.3451C71.7724 25.9714 71.7926 25.9259 72.0098 25.6279C72.1411 25.4511 72.2572 25.3148 72.2673 25.3299C72.2825 25.3451 72.3179 25.4057 72.3482 25.4663Z" fill="black"/>
<path d="M79.7274 24.0723C79.3991 24.1531 78.692 24.4814 78.692 24.5521C78.692 24.5774 78.7829 24.7794 78.8941 24.9966L79.091 25.3956L79.5355 25.1683C80.1063 24.8804 80.4851 24.8299 80.8336 25.0016C81.1114 25.133 81.2881 25.3501 81.369 25.6481C81.4144 25.8249 81.4094 25.9259 81.3437 26.1785C81.1922 26.7694 80.9194 27.022 80.4245 27.022C80.1315 27.022 79.9699 26.926 79.8739 26.6886C79.7628 26.426 79.7779 26.4159 80.1315 26.4159H80.4598V26.0118V25.6077H79.8537C79.192 25.6077 79.0355 25.6532 78.8486 25.8906C78.7627 25.9967 78.7425 26.0977 78.7425 26.3654C78.7425 27.0422 79.0052 27.5422 79.4951 27.7897C79.7527 27.921 79.8133 27.9311 80.3891 27.9311C81.1417 27.9311 81.4346 27.8402 81.8185 27.4968C82.4448 26.9361 82.662 25.7492 82.2731 24.9915C81.8639 24.1885 80.8134 23.8096 79.7274 24.0723Z" fill="black"/>
<path d="M60.1555 25.936V27.8301H60.7363H61.3171V25.936V24.042H60.7363H60.1555V25.936Z" fill="black"/>
<path d="M62.0748 25.4663C62.0748 26.3098 62.095 26.9765 62.1303 27.0876C62.201 27.3553 62.4384 27.5978 62.7718 27.7644C63.0193 27.8856 63.1203 27.9059 63.489 27.9059C63.8577 27.9008 63.9587 27.8806 64.186 27.7644C64.4386 27.6331 64.4487 27.6331 64.4487 27.7291C64.4487 27.825 64.479 27.8301 64.979 27.8301H65.5093V25.9663C65.5093 24.3147 65.4992 24.0975 65.4285 24.0723C65.3831 24.0571 65.1507 24.042 64.9083 24.042H64.4638L64.4335 24.8349C64.4133 25.2744 64.3982 25.8502 64.3982 26.1179C64.3982 26.6583 64.3881 26.6734 64.0092 26.8654C63.7213 27.0068 63.4385 27.0068 63.3021 26.8553C63.095 26.628 63.09 26.5876 63.1203 25.2895L63.1506 24.042H62.6152H62.0748V25.4663Z" fill="black"/>
</svg>
