<svg width="55" height="57" viewBox="0 0 55 57" fill="none" xmlns="http://www.w3.org/2000/svg">
<path d="M20.976 3.06121e-06C21.1307 0.0243542 21.2861 0.0467827 21.4406 0.0730564C22.4646 0.247681 23.34 0.72157 24.1051 1.41078C24.7934 2.03045 25.3397 2.7722 25.8866 3.51171C26.3451 4.13203 26.7655 4.77702 27.0628 5.49378C27.2048 5.8363 27.3124 6.18811 27.2785 6.56684C27.2589 6.78119 27.176 6.96126 26.9914 7.08719C26.8978 7.15127 26.8158 7.16024 26.7094 7.09872C26.1923 6.79946 25.6405 6.59375 25.0484 6.49731C24.1349 6.34832 23.2538 6.47776 22.4332 6.88437C21.7447 7.22496 21.0926 7.63893 20.4201 8.01189C20.0455 8.21952 19.6726 8.4374 19.2781 8.60017C18.7799 8.80619 18.5876 8.67066 18.5107 8.13589C18.4483 7.70302 18.4229 7.25861 18.3047 6.84079C18.1791 6.39606 17.9766 5.97055 17.7815 5.54857C17.6415 5.24482 17.3653 5.06251 17.0775 4.90967C16.8677 4.79785 16.6501 4.70012 16.4406 4.58798C15.8686 4.2823 15.7623 3.97086 15.8689 3.364C16.001 2.61424 16.4329 2.02981 16.9686 1.52004C17.7808 0.747202 18.7443 0.263702 19.8517 0.0736973C20.0109 0.0464629 20.1711 0.0243542 20.331 3.06121e-06H20.976Z" fill="#101010"/>
<path d="M40.737 24.3371C40.7956 24.3066 40.8293 24.2922 40.86 24.273C41.9081 23.6113 42.9119 22.8904 43.8011 22.0218C44.3676 21.4681 44.8764 20.8673 45.2147 20.1403C45.7082 19.0801 45.5499 18.1342 44.7472 17.2842C44.1538 16.6562 43.4121 16.3181 42.5809 16.1406C41.6889 15.95 40.786 15.925 39.8795 15.9516C39.7193 15.9564 39.5595 15.9734 39.3813 15.9862C40.5024 18.6671 40.861 21.4511 40.737 24.3371ZM38.801 14.7103C38.1458 11.3005 36.0461 9.26682 32.8331 8.24311C33.1967 8.21684 33.5601 8.17614 33.9241 8.16749C35.0256 8.14122 36.1279 8.09989 37.2291 8.11655C38.2128 8.13193 39.1964 8.20114 40.1782 8.27387C41.5608 8.3764 42.9299 8.58691 44.283 8.8913C46.0792 9.29598 47.8142 9.86728 49.4131 10.8013C50.672 11.5363 51.7604 12.4607 52.5662 13.6901C53.0587 14.4421 53.4298 15.2463 53.5791 16.1416C53.7649 17.2566 53.5371 18.2829 52.9181 19.2243C52.3641 20.0663 51.6198 20.7129 50.7924 21.2707C49.4983 22.1429 48.0805 22.759 46.6152 23.2743C44.8437 23.8968 43.0279 24.3508 41.1836 24.695C41.0285 24.7241 40.8738 24.7546 40.7254 24.7831C40.6376 25.5184 40.5518 26.2438 40.4633 26.9846C40.4633 26.5271 40.4778 26.0868 40.4611 25.6479C40.405 24.1951 40.1346 22.7933 39.3964 21.5174C38.7386 20.3806 37.8078 19.5713 36.5248 19.2108C35.4758 18.916 34.4361 19.0083 33.4088 19.3245C32.1586 19.71 31.0631 20.3771 30.0586 21.2009C28.4303 22.5367 27.1592 24.1685 26.1333 25.9974C25.1845 27.6882 24.4947 29.479 24.0935 31.3781C23.8308 32.621 23.7116 33.878 23.7811 35.1477C23.8446 36.3108 24.0634 37.4422 24.5588 38.5069C25.0762 39.6188 25.8273 40.5162 26.9493 41.0622C27.7315 41.4429 28.5613 41.579 29.4255 41.5066C30.9676 41.3775 32.3028 40.729 33.538 39.8443C33.9548 39.5464 34.3464 39.2128 34.7789 38.8719C34.5537 39.0991 34.3566 39.3048 34.1519 39.5028C32.885 40.7296 31.4732 41.755 29.8901 42.5371C28.6978 43.126 27.4569 43.58 26.1454 43.8232C25.4572 43.9514 24.7641 43.9994 24.0781 43.8072C23.2653 43.5794 22.767 43.0183 22.4697 42.2548C22.2579 41.7117 22.1608 41.1426 22.1002 40.5656C21.9942 39.5598 22.0083 38.5512 22.0285 37.5428C22.0486 36.5441 22.081 35.5454 22.1115 34.547C22.1489 33.3047 22.1284 32.0641 22.0528 30.8232C21.9528 29.1948 21.6626 27.6046 21.1521 26.0541C20.4552 23.9378 19.4136 22.0041 18.0682 20.2313C18.0204 20.1682 17.981 20.1406 17.8958 20.1784C16.1383 20.9503 14.4453 21.8343 12.9461 23.0503C12.3229 23.5556 11.7545 24.1144 11.319 24.7959C11.0313 25.2467 10.8253 25.7289 10.808 26.2717C10.792 26.7667 10.9528 27.207 11.2623 27.5924C11.6747 28.1067 12.2248 28.4265 12.8186 28.6802C13.5997 29.0144 14.4213 29.2016 15.2578 29.3281C16.0714 29.4512 16.8897 29.504 17.7119 29.5322C18.205 29.5495 18.6962 29.6226 19.1931 29.6863C18.9012 29.7594 18.61 29.8356 18.3171 29.9052C16.9378 30.2336 15.5462 30.5056 14.1393 30.6812C13.1957 30.7991 12.2463 30.8879 11.2969 30.9414C10.5106 30.9859 9.71921 30.9856 8.93196 30.958C7.73555 30.9164 6.55387 30.7514 5.4084 30.3832C4.49715 30.0907 3.65158 29.6767 2.93834 29.024C2.09566 28.2531 1.61216 27.29 1.44234 26.1685C1.12385 24.0625 1.6708 22.1557 2.80185 20.3902C3.61794 19.1156 4.65319 18.0368 5.8025 17.0624C7.20078 15.8772 8.73139 14.8881 10.3331 14.0025C13.7042 12.1387 17.2556 10.7253 20.973 9.72501C22.3027 9.36711 23.6507 9.09861 25.0166 8.92558C25.9154 8.81184 26.818 8.75032 27.7254 8.74295C29.3262 8.73014 30.8984 8.90572 32.4316 9.38346C35.1105 10.2181 37.0897 11.9176 38.5172 14.3008C38.5941 14.4287 38.6687 14.5578 38.7453 14.6859C38.7488 14.6917 38.7607 14.693 38.801 14.7103Z" fill="#101010"/>
<path d="M55 56.0212H54.8289C53.736 56.0212 52.6427 56.0193 51.5495 56.0241C51.4313 56.0247 51.3675 55.9866 51.3069 55.886C50.255 54.1497 49.1996 52.4156 48.1445 50.6812C48.114 50.6312 48.081 50.5825 48.0294 50.5024C47.9891 50.8661 47.9519 51.1939 47.9163 51.5213C47.8077 52.5188 47.6997 53.5165 47.5914 54.5143C47.5411 54.9779 47.4883 55.4419 47.4415 55.9065C47.4335 55.9853 47.4152 56.0228 47.3274 56.0225C46.4258 56.0202 45.5241 56.0212 44.6225 56.0202C44.5956 56.0202 44.569 56.0119 44.5338 56.0058C44.8452 53.0542 45.1557 50.1086 45.4678 47.1506H45.6174C46.7571 47.1506 47.8971 47.1519 49.0371 47.1487C49.1329 47.1483 49.1852 47.1781 49.2335 47.2618C50.2707 49.0391 51.3111 50.8142 52.3512 52.5899C52.3784 52.6364 52.4085 52.6809 52.4598 52.7623V47.1589H55V56.0212Z" fill="#101010"/>
<path d="M31.5527 56.0456C31.9914 55.6201 32.406 55.217 32.8222 54.8149C33.7017 53.9645 34.5819 53.1145 35.4618 52.2641C36.7178 51.0507 37.9741 49.8373 39.2298 48.6233C39.6899 48.1785 40.1497 47.7338 40.6063 47.2855C40.6941 47.199 40.7828 47.1561 40.9116 47.1564C42.1824 47.1612 43.4531 47.1596 44.7236 47.1596H44.8985C44.87 47.4272 44.8431 47.6845 44.8149 47.9417C44.7447 48.5723 44.6739 49.2029 44.6028 49.8331C44.5233 50.5422 44.4426 51.2513 44.3631 51.9607C44.3029 52.4983 44.2433 53.036 44.1834 53.5739C44.1033 54.2878 44.0267 55.002 43.9411 55.7152C43.9056 56.0129 43.8969 56.0123 43.5976 56.0123H41.3833H41.2058C41.473 53.8158 41.7383 51.6338 42.0068 49.4265C41.382 50.0712 40.7764 50.6966 40.1933 51.299H41.3077C41.2913 51.365 41.282 51.4089 41.2689 51.4515C41.0872 52.0488 40.9027 52.6454 40.7248 53.2439C40.6957 53.342 40.6524 53.3724 40.5509 53.3718C39.738 53.3679 38.9251 53.3673 38.1122 53.3734C38.0385 53.374 37.9475 53.4105 37.8953 53.4621C37.0523 54.2901 36.2154 55.1247 35.3733 55.954C35.3224 56.0036 35.2397 56.0494 35.1718 56.0498C33.9991 56.0555 32.8264 56.0539 31.6537 56.0536C31.6312 56.0536 31.6091 56.0504 31.5527 56.0456Z" fill="#101010"/>
<path d="M9.65112 56.0078C9.91674 53.8254 10.1814 51.6502 10.4483 49.4569C9.83311 50.0882 9.23298 50.7043 8.65656 51.2967H9.77608C9.56108 52.0001 9.35281 52.6809 9.14102 53.3743H8.98915C8.18555 53.3743 7.38196 53.3759 6.57837 53.3721C6.48225 53.3717 6.41464 53.3983 6.34639 53.4669C5.50595 54.3048 4.66359 55.1398 3.81834 55.9725C3.77381 56.0161 3.70107 56.0561 3.64116 56.0565C2.45467 56.0616 1.26819 56.0603 0.0813844 56.06C0.0634414 56.06 0.0454984 56.0568 0 56.0526C0.039731 56.0071 0.0656843 55.9735 0.095803 55.9443C0.991994 55.0776 1.88851 54.2112 2.78502 53.3445C4.08813 52.0859 5.39124 50.8273 6.69404 49.5681C7.49635 48.7927 8.29738 48.0161 9.10225 47.2429C9.14743 47.1993 9.21888 47.1586 9.27816 47.1586C10.5069 47.1535 11.7354 47.1548 12.9642 47.1551C12.9911 47.1551 13.018 47.1602 13.0558 47.1638C13.0097 47.5364 12.9658 47.9017 12.919 48.2669C12.8014 49.1923 12.6829 50.1183 12.5646 51.0443C12.4278 52.1135 12.291 53.1827 12.1545 54.2522C12.0853 54.7982 12.0154 55.3445 11.9488 55.8911C11.9395 55.9677 11.9318 56.0231 11.8312 56.0228C11.1301 56.0196 10.4297 56.0209 9.72866 56.0203C9.70655 56.0203 9.68444 56.0135 9.65112 56.0078Z" fill="#101010"/>
<path d="M33.4026 51.9378C33.5029 51.5604 33.6041 51.1829 33.7038 50.8052C34.013 49.6373 34.3228 48.4703 34.6291 47.3018C34.6541 47.206 34.691 47.1679 34.7967 47.1682C36.0768 47.1723 37.3568 47.1707 38.6368 47.1714C38.6779 47.1714 38.7189 47.1759 38.7727 47.1791C38.7868 47.5248 38.8025 47.8638 38.8118 48.2031C38.8127 48.2377 38.7842 48.2813 38.7567 48.3079C37.9752 49.0714 37.1915 49.8334 36.4084 50.5953C36.3956 50.6081 36.3802 50.6187 36.3481 50.645C36.3347 50.3528 36.3222 50.0766 36.3078 49.7638C36.2805 49.8231 36.2648 49.851 36.2546 49.8811C36.1232 50.2752 35.9941 50.6693 35.8605 51.0625C35.8435 51.1131 35.8143 51.1653 35.7762 51.2018C34.7064 52.2384 33.6336 53.272 32.5647 54.3095C32.4282 54.4418 32.311 54.5944 32.1847 54.7373C32.1665 54.726 32.1475 54.7145 32.129 54.703C31.5846 53.0698 31.0399 51.437 30.4955 49.8039C30.4843 49.8045 30.4731 49.8052 30.4619 49.8058C30.4186 50.8446 30.3763 51.8834 30.3321 52.9218C30.2876 53.9612 30.2421 55.001 30.1966 56.05H27.6198C27.938 53.0936 28.2555 50.1435 28.5756 47.1707H28.7416C29.8114 47.1707 30.8813 47.1736 31.9511 47.1675C32.0812 47.1666 32.1254 47.214 32.1559 47.3306C32.5493 48.833 32.9467 50.3338 33.3436 51.8353C33.3533 51.8709 33.3658 51.9058 33.377 51.9414C33.3853 51.9401 33.3939 51.9391 33.4026 51.9378Z" fill="#101010"/>
<path d="M22.2792 56.0641H19.4871C19.8588 53.0919 20.2295 50.1272 20.6012 47.1547H20.754C21.9828 47.1563 23.2116 47.1486 24.44 47.1637C25.185 47.173 25.9194 47.2678 26.6124 47.5728C27.9998 48.1832 28.2978 49.7385 27.7435 50.8747C27.2465 51.8926 26.3952 52.446 25.302 52.6417C24.6704 52.7552 24.0376 52.742 23.417 52.5504C23.3442 52.528 23.291 52.5104 23.3048 52.411C23.3692 51.9535 23.4266 51.4947 23.4868 51.0368C23.4887 51.0185 23.4958 51.0006 23.5032 50.9714C23.632 50.9788 23.7614 50.9974 23.8896 50.9907C24.0889 50.9798 24.2936 50.975 24.4852 50.9256C24.9424 50.8083 25.2424 50.3659 25.2065 49.9009C25.1699 49.4331 24.8156 49.0727 24.3321 49.0003C23.9396 48.9416 23.5599 49.0073 23.185 49.1118C23.143 49.1233 23.0994 49.2005 23.0924 49.2521C23.0277 49.7519 22.97 50.2528 22.911 50.7532C22.8043 51.6571 22.6986 52.561 22.5916 53.4649C22.4923 54.2992 22.392 55.1336 22.292 55.9676C22.2888 55.9948 22.285 56.0221 22.2792 56.0641Z" fill="#101010"/>
<path d="M16.4339 50.9566C16.7604 50.9367 17.0677 50.9489 17.3619 50.8928C17.8556 50.7989 18.1735 50.352 18.1421 49.8604C18.1116 49.3811 17.7438 49.0117 17.2334 48.9486C16.8514 48.9014 16.4798 48.9649 16.1135 49.0649C16.0776 49.0748 16.0386 49.1414 16.0328 49.1857C15.9665 49.7041 15.9062 50.2231 15.8441 50.7419C15.7268 51.7291 15.6092 52.7159 15.4919 53.7028C15.4048 54.435 15.3163 55.1671 15.2327 55.8996C15.2231 55.9832 15.2048 56.0232 15.11 56.0229C14.2369 56.02 13.3631 56.0213 12.4897 56.0207C12.4673 56.0207 12.4445 56.0152 12.4064 56.0104C12.4451 55.6971 12.4826 55.3891 12.5217 55.0815C12.6489 54.0767 12.7768 53.0726 12.9049 52.0681C13.0414 50.9989 13.1792 49.93 13.316 48.8608C13.3843 48.3237 13.456 47.7871 13.5169 47.2497C13.5294 47.1376 13.5704 47.1129 13.6733 47.1132C15.0187 47.1158 16.3638 47.1049 17.7089 47.1203C18.1504 47.1254 18.5935 47.1773 19.0309 47.2398C19.425 47.2962 19.7611 47.4932 20.0293 47.7899C20.0745 47.8402 20.1071 47.9309 20.0991 47.9969C20.0088 48.7377 19.9098 49.4779 19.8127 50.218C19.7422 50.7547 19.6743 51.2917 19.599 51.8278C19.5894 51.8957 19.5551 51.9713 19.5086 52.0216C19.2174 52.3363 18.8361 52.4849 18.4291 52.5724C17.7339 52.7224 17.0395 52.7111 16.3484 52.5372C16.2817 52.5202 16.225 52.5083 16.2382 52.4135C16.3039 51.9329 16.3651 51.4516 16.4285 50.9707C16.4301 50.9575 16.4391 50.9454 16.4339 50.9566Z" fill="#101010"/>
<path d="M27.8007 34.1437C27.8007 33.8909 27.7825 33.648 27.8036 33.4087C28.0324 30.8018 29.0148 28.5 30.6511 26.4731C31.4444 25.4894 32.3807 24.6656 33.5242 24.1014C34.15 23.7925 34.8065 23.5897 35.5105 23.5817C36.7572 23.5685 37.6976 24.1174 38.3567 25.1616C38.77 25.8169 38.9856 26.5445 39.077 27.3061C39.3304 29.4148 38.8498 31.392 37.9757 33.2953C37.9722 33.3026 37.9632 33.3078 37.9347 33.3343C37.8703 30.8745 37.8069 28.4346 37.7428 25.988C37.704 25.9822 37.6771 25.9742 37.6511 25.9755C36.3416 26.0485 35.0324 26.1238 33.7229 26.1943C33.6274 26.1997 33.5739 26.2392 33.5204 26.3128C31.6383 28.8934 29.7546 31.4731 27.8709 34.053C27.8491 34.0825 27.826 34.111 27.8007 34.1437Z" fill="#101010"/>
<path d="M35.6614 28.4645C35.6614 28.8551 35.6544 29.2457 35.6627 29.6356C35.689 30.8487 35.7207 32.0621 35.7508 33.2752C35.7684 33.9795 35.7877 34.684 35.8066 35.3883C35.8149 35.7103 35.8229 36.032 35.8354 36.354C35.8393 36.4527 35.8149 36.5274 35.7425 36.6017C34.9213 37.4492 34.0068 38.1631 32.8931 38.586C32.0622 38.9019 31.2112 39.007 30.3448 38.736C29.6511 38.5187 29.1132 38.0878 28.6906 37.4867C28.8347 37.2883 28.9796 37.0887 29.1247 36.8898C29.9751 35.7244 30.8267 34.56 31.6745 33.3928C31.7386 33.304 31.8078 33.2643 31.9145 33.2592C32.6553 33.2217 33.3964 33.1803 34.1369 33.1397C34.2209 33.1348 34.3048 33.1268 34.3881 33.1208C34.6268 33.1034 34.6271 33.1034 34.6832 32.8772C34.8485 32.2079 35.0136 31.5386 35.1776 30.8689C35.1856 30.8378 35.1885 30.8061 35.1981 30.7487C34.6541 30.7789 34.1218 30.808 33.5441 30.8401C34.2468 30.0262 34.9242 29.2422 35.6015 28.4578L35.6614 28.4645Z" fill="#101010"/>
<path d="M36.587 56.0328C36.5581 55.8159 36.5338 55.6304 36.7295 55.4493C37.2502 54.9674 37.7433 54.456 38.2525 53.9613C38.2992 53.9162 38.3793 53.886 38.4457 53.8825C38.6446 53.8726 38.8446 53.8787 39.0625 53.8787C39.0935 54.6028 39.124 55.3128 39.1551 56.0328H36.587Z" fill="#101010"/>
</svg>
