<svg width="97" height="23" viewBox="0 0 97 23" fill="none" xmlns="http://www.w3.org/2000/svg">
<path fill-rule="evenodd" clip-rule="evenodd" d="M6.90754 0.0248278C1.72105 0.542396 -1.332 5.69646 0.568713 10.7261C0.951065 11.7375 2.00181 13.611 2.07987 13.4203C2.09115 13.3932 2.54244 11.7219 3.08306 9.70635C4.10354 5.9006 4.12636 5.82159 4.30913 5.43803C4.84063 4.32268 6.16709 3.24311 6.67817 3.5097C7.06413 3.71121 7.06413 3.71169 6.53791 5.67052C6.29966 6.55819 6.10465 7.29143 6.10465 7.30008C6.10465 7.30872 6.84894 7.31593 7.7587 7.31593H9.41276L9.48049 7.06735C10.5259 3.23135 11.1429 0.875512 11.1088 0.848133C10.9417 0.713637 9.92984 0.33825 9.38081 0.206877C8.65766 0.0341944 7.59707 -0.043861 6.90754 0.0248278ZM13.1066 2.41236C13.0989 2.43806 12.5869 4.34382 11.9687 6.64729C11.3505 8.95101 10.8096 10.936 10.7668 11.0583C10.4323 12.0127 9.61402 12.9424 8.73067 13.3709C8.4624 13.501 8.27123 13.4775 8.08269 13.2907C7.87254 13.0822 7.8747 13.0649 8.36081 11.2499C8.59233 10.386 8.78159 9.66384 8.78159 9.64486C8.78159 9.61628 8.49915 9.61052 7.13066 9.61076L5.47996 9.611L4.69196 12.5492C4.25869 14.1651 3.89964 15.5005 3.89412 15.5166C3.84224 15.6657 6.05445 17.3685 7.2469 18.0972C7.65231 18.3448 7.55288 18.3431 7.93763 18.109C14.0706 14.3762 16.6878 8.75911 14.4167 4.20332C14.0384 3.44462 13.1577 2.24088 13.1066 2.41236ZM37.7832 5.43131C35.0253 5.58214 32.8361 7.53905 32.4391 10.2081C31.9612 13.4203 34.1419 16.2558 37.3816 16.6348C40.976 17.0553 43.9394 14.5299 43.9402 11.0458C43.9411 7.66922 41.2769 5.23989 37.7832 5.43131ZM72.8399 5.43107C69.5373 5.61432 67.1344 8.39886 67.4706 11.6529C67.7764 14.6138 70.1219 16.66 73.2095 16.66C76.5465 16.66 79.0104 14.2655 79.0075 11.0254C79.0046 7.66273 76.3305 5.23725 72.8399 5.43107ZM87.6459 5.51969C87.2679 5.62152 86.96 5.91309 86.7986 6.3221C86.7681 6.39896 86.2616 7.92452 85.6725 9.71235C85.0836 11.5004 84.5989 12.9659 84.5958 12.9693C84.5924 12.9724 84.1041 11.4752 83.5107 9.64198C82.3588 6.08457 82.3571 6.07977 82.1316 5.85929C81.2524 4.99876 79.7691 5.82447 80.0875 6.99722C80.1649 7.28158 83.1937 15.7406 83.284 15.9239C83.7739 16.9194 85.2781 16.9449 85.787 15.9662C85.843 15.859 86.3336 14.4709 86.9634 12.6391C87.5578 10.9101 88.0506 9.51301 88.0586 9.53391C88.0665 9.55504 88.5562 10.9776 89.1463 12.6955C89.7366 14.4132 90.2559 15.8871 90.3003 15.971C90.8224 16.9569 92.3271 16.9163 92.8123 15.9032C92.9588 15.5973 95.9748 7.11491 96.0231 6.87281C96.239 5.79084 94.8751 5.06001 94.0501 5.81582C93.7919 6.05215 93.832 5.94383 92.6506 9.59131C92.048 11.4519 91.5478 12.9604 91.5389 12.9434C91.53 12.9261 91.0381 11.438 90.4461 9.63598C89.313 6.18689 89.2693 6.06824 89.0421 5.83528C88.737 5.52209 88.139 5.38688 87.6459 5.51969ZM63.833 5.54515C63.4684 5.64338 63.1802 5.90373 63.0301 6.27119L62.973 6.41073L62.9602 9.33384L62.9475 12.257L60.6657 9.25867C59.4105 7.60966 58.317 6.18208 58.2356 6.08649C57.4221 5.13206 55.8349 5.43491 55.6672 6.57644C55.6197 6.90019 55.6605 15.5218 55.7105 15.7039C56.0085 16.7902 57.5355 16.8401 57.9702 15.7781L58.0269 15.6402L58.0396 12.6333L58.0524 9.62661L60.4485 12.7736C62.0675 14.9 62.911 15.9868 63.0491 16.1249C63.7956 16.8709 65.0084 16.6302 65.2901 15.6801C65.3514 15.4743 65.3533 6.62039 65.2923 6.38623C65.129 5.7589 64.4635 5.37535 63.833 5.54515ZM22.0575 5.55836C21.5716 5.63113 21.148 6.06344 21.0709 6.56539C21.0521 6.68692 21.0459 8.12554 21.0507 11.1656L21.0579 15.5893L21.1153 15.7402C21.4888 16.7208 22.8003 16.8442 23.3138 15.9469C23.4671 15.6789 23.4673 15.6782 23.4673 13.8246V12.1345H25.6598H27.8526V13.8118C27.8526 15.2166 27.8586 15.513 27.8905 15.6352C28.2073 16.8514 29.9197 16.8514 30.2365 15.6352C30.2949 15.4116 30.2939 6.68668 30.2356 6.46284C29.919 5.24782 28.208 5.24782 27.8915 6.46284C27.8583 6.58989 27.8526 6.86345 27.8526 8.2646V9.9165H25.6598H23.4673V8.25187C23.4673 6.83847 23.4613 6.56443 23.4282 6.43714C23.273 5.84128 22.6853 5.46445 22.0575 5.55836ZM45.4693 5.66572C44.5504 5.9789 44.4652 7.2727 45.3348 7.70957C45.552 7.81861 45.6322 7.82437 46.9041 7.82509L48.1215 7.82581V11.6488C48.1215 15.7399 48.1179 15.6205 48.2539 15.891C48.7664 16.911 50.3109 16.6886 50.516 15.5653C50.5353 15.4611 50.5437 14.2352 50.5437 11.621V7.82797L51.8264 7.82053L53.1089 7.81308L53.3006 7.71821C54.2022 7.27246 54.1217 5.97938 53.1726 5.65947C53.0203 5.60831 52.9744 5.60759 49.3272 5.60832L45.6358 5.60904L45.4693 5.66572ZM38.8029 7.70885C40.7382 8.12963 41.8538 10.1204 41.2757 12.1217C40.4611 14.9428 36.5972 15.2805 35.2727 12.6463C34.239 10.5902 35.4201 8.04245 37.5663 7.69876C37.6715 7.68195 37.7747 7.66394 37.7959 7.65889C37.8891 7.63656 38.6415 7.67378 38.8029 7.70885ZM73.9233 7.72038C77.3438 8.51126 77.3385 13.6495 73.9166 14.3822C71.8334 14.8285 69.9843 13.2501 69.9843 11.0254C69.9843 8.80643 71.8502 7.241 73.9233 7.72038ZM5.78594 20.9312C1.594 21.1257 1.21309 21.7672 5.1358 22.0257C8.48594 22.2464 12.8863 21.9498 12.8863 21.503C12.8863 21.2629 11.9763 21.09 9.99277 20.9535C9.50138 20.9199 6.38685 20.9031 5.78594 20.9312Z" fill="black"/>
</svg>
