<svg width="68" height="19" viewBox="0 0 68 19" fill="none" xmlns="http://www.w3.org/2000/svg">
<path fill-rule="evenodd" clip-rule="evenodd" d="M0 6.83128V13.6626H1.72241H3.44481L3.42315 9.86638C3.41139 7.77857 3.38544 5.75276 3.36565 5.36479C3.34585 4.97681 3.31747 4.4214 3.30272 4.13033C3.27136 3.51625 3.28779 3.49676 3.49149 3.90683C4.23086 5.39467 5.04548 6.70487 7.78583 10.8133L9.68655 13.6628L15.9981 13.6535L22.3097 13.644L24.0384 11.5464C24.9893 10.3926 25.7797 9.44444 25.7948 9.43942C25.8099 9.43423 26.612 10.3815 27.5773 11.5443L29.3322 13.6585L31.4727 13.6605L33.6131 13.6626L33.3896 13.3934C30.2831 9.65197 27.9726 6.84279 27.9808 6.81699C27.9866 6.79898 28.771 5.8426 29.7241 4.6915L31.457 2.59886H33.522H35.587V8.13071V13.6626H37.4541H39.3213V8.13071V2.59886H44.5736C49.5726 2.59886 49.8232 2.60201 49.7688 2.66383C49.7375 2.69966 47.9788 4.80492 45.8608 7.34233L42.0099 11.9559V12.8092V13.6626H49.2169H56.4239V12.3817V11.1008H51.7157C47.966 11.1008 47.0106 11.0914 47.0227 11.0544C47.0311 11.029 48.7083 8.99391 50.7496 6.53242L54.4612 2.05662L56.4695 4.53482L58.4778 7.01302V10.3563V13.6997H60.4009H62.324L62.3253 10.3676L62.3264 7.03548L65.1633 3.53853C66.7235 1.61538 68 0.0323 68 0.0207908C68 0.00946718 67.0683 0 65.9296 0H63.859L63.248 0.751813C62.4745 1.70392 60.6744 3.90646 60.5095 4.10248C60.4291 4.19827 60.3744 4.23651 60.3555 4.21034C60.3395 4.18787 59.571 3.23131 58.6479 2.08484L56.9697 0H43.1486H29.3276L29.2499 0.104511C29.2073 0.161872 28.4538 1.06832 27.5755 2.11863C26.6972 3.16894 25.9446 4.07427 25.9027 4.13033C25.8609 4.18657 25.817 4.23243 25.8055 4.23243C25.7937 4.23243 25.0028 3.28087 24.048 2.11788L22.3119 0.00334132L16.1785 0.00167066L10.045 0L10.0443 4.40878L10.0434 8.81755L9.93842 8.63192C9.88054 8.52982 9.66489 8.13721 9.45895 7.75945C8.69007 6.34938 8.37154 5.85727 5.41461 1.51216L4.3877 0.00315579L2.19385 0.00167066L0 0V6.83128ZM21.9049 4.67813C22.8681 5.84205 23.6562 6.81012 23.6562 6.82924C23.6562 6.84836 22.8674 7.81737 21.9032 8.9824L20.1504 11.1008H16.9647H13.7792V9.61577V8.13071H16.3745H18.9698V9.24674C18.9698 9.92819 18.9834 10.3544 19.0047 10.3412C19.0615 10.3063 21.9012 6.86284 21.9012 6.82868C21.9012 6.81161 21.2458 6.00522 20.4448 5.03659L18.9885 3.27549L18.9786 4.40376L18.9687 5.53185H16.374H13.7792V4.04679V2.56173H16.9664H20.1535L21.9049 4.67813ZM8.73806 16.5584V16.7069H9.13015H9.52224V17.8393V18.9717H9.70895H9.89566V17.8393V16.7069H10.2878H10.6798V16.5584V16.4099H9.70895H8.73806V16.5584ZM12.8083 17.6908V18.9717H13.6672H14.5261V18.8232V18.6747H13.8539H13.1818V18.2477V17.8207H13.8166H14.4514V17.6722V17.5237H13.8166H13.1818V17.1153V16.7069H13.8353H14.4887V16.5584V16.4099H13.6485H12.8083V17.6908ZM17.4393 16.4695C16.8346 16.631 16.5694 17.1281 16.6591 17.9321C16.7397 18.6559 17.1438 18.9717 17.9892 18.9717C18.5891 18.9717 18.7084 18.9303 18.7084 18.722C18.7084 18.5787 18.6993 18.5588 18.6431 18.5802C17.8572 18.8801 17.1436 18.58 17.023 17.8991C16.8706 17.0396 17.484 16.5395 18.4212 16.7587C18.5613 16.7916 18.6839 16.8183 18.6942 16.8183C18.7043 16.8183 18.7075 16.7472 18.7011 16.6605C18.6901 16.5074 18.6847 16.5014 18.5217 16.4593C18.2862 16.3984 17.6841 16.4042 17.4393 16.4695ZM20.9863 17.6908V18.9717H21.1543H21.3223V18.3962V17.8207H22.0692H22.816V18.3962V18.9717H22.9841H23.1521V17.6908V16.4099H22.9841H22.816V16.9668V17.5237H22.0692H21.3223V16.9668V16.4099H21.1543H20.9863V17.6908ZM25.5047 17.6908V18.9717H25.6721H25.8394L25.8495 17.9889L25.8594 17.0062L26.6053 17.9889L27.3514 18.9717H27.5295H27.7079V17.6908V16.4099H27.5404H27.3731L27.363 17.3942L27.3531 18.3784L26.6063 17.3956L25.8594 16.4131L25.682 16.4114L25.5047 16.4099V17.6908ZM30.7974 16.4504C30.2322 16.5828 29.9654 16.9956 29.9719 17.7279C29.9801 18.6164 30.3283 18.9531 31.2391 18.9531C32.1671 18.9531 32.5074 18.6076 32.5011 17.6722C32.4944 16.6941 31.8203 16.2107 30.7974 16.4504ZM34.7655 17.6908V18.9717H35.6057H36.4459V18.8232V18.6747H35.7924H35.1389V17.5423V16.4099H34.9522H34.7655V17.6908ZM39.3114 16.4504C38.2355 16.7023 38.167 18.6112 39.2229 18.9162C40.4066 19.2581 41.2367 18.5195 41.0037 17.3312C40.8603 16.6 40.1812 16.2466 39.3114 16.4504ZM43.9864 16.4606C43.3882 16.621 43.1385 17.0292 43.1748 17.7873C43.2192 18.7147 43.9569 19.1734 45.023 18.9362L45.2213 18.892V18.3379V17.7836H45.0357H44.8503L44.8397 18.2198L44.8292 18.6561L44.4745 18.6546C43.8169 18.6518 43.5409 18.3552 43.5409 17.6513C43.5409 16.9145 44.1233 16.5462 44.9536 16.758C45.0837 16.7912 45.197 16.8183 45.2056 16.8183C45.2142 16.8183 45.2213 16.7454 45.2213 16.6565V16.4944L45.0098 16.4523C44.7368 16.3977 44.2049 16.4021 43.9864 16.4606ZM47.5365 17.6908V18.9717H47.7232H47.9099V17.6908V16.4099H47.7232H47.5365V17.6908ZM50.2998 17.6908V18.9717H51.1587H52.0176V18.8232V18.6747H51.3454H50.6733V18.2477V17.8207H51.3081H51.9429V17.6722V17.5237H51.3081H50.6733V17.1153V16.7069H51.3267H51.9802V16.5584V16.4099H51.14H50.2998V17.6908ZM54.5946 16.4827C54.2443 16.603 54.0753 16.8876 54.128 17.2685C54.186 17.6884 54.3972 17.82 55.0684 17.8555C55.6045 17.8837 55.7144 17.9449 55.7144 18.2145C55.7144 18.626 55.2178 18.7918 54.5008 18.6197C54.3776 18.5902 54.2643 18.5653 54.2488 18.5646C54.2335 18.5638 54.2208 18.6377 54.2208 18.7287C54.2208 18.9381 54.2758 18.9531 55.0423 18.9531C55.7731 18.9531 56.0012 18.8276 56.072 18.3869C56.1659 17.8035 55.8535 17.5237 55.1084 17.5237C54.6211 17.5237 54.4368 17.3856 54.4973 17.0654C54.5649 16.7075 55.3177 16.59 55.9501 16.8386C56.0106 16.8623 56.0165 16.846 56.0061 16.6839L55.9945 16.5027L55.7891 16.4599C55.4497 16.3891 54.833 16.4008 54.5946 16.4827ZM31.566 16.7467C32.2539 16.9368 32.3454 18.2568 31.693 18.58C31.1827 18.833 30.5485 18.6073 30.4017 18.1207C30.1312 17.2224 30.7299 16.5159 31.566 16.7467ZM40.08 16.7467C40.836 16.9555 40.8581 18.3793 40.1092 18.6318C39.3991 18.8712 38.8918 18.4792 38.8918 17.6908C38.8918 16.9174 39.3577 16.5473 40.08 16.7467Z" fill="black"/>
</svg>
