<svg width="95" height="19" viewBox="0 0 95 19" fill="none" xmlns="http://www.w3.org/2000/svg">
<path fill-rule="evenodd" clip-rule="evenodd" d="M0 6.88567V13.7713H4.27393H8.54786V12.4458V11.1202H5.73327H2.91869V9.53677V7.95357H5.62917H8.33942V6.66478V5.376H5.62917H2.91869V3.97666V2.57756H5.73327H8.54786V1.28878V0H4.27393H0V6.88567ZM48.4381 6.88567V13.7713H49.8281H51.218L51.2228 8.56106C51.2257 5.25088 51.2513 3.40466 51.2927 3.49812C51.3286 3.57907 51.8592 5.86578 52.472 8.57944C53.0846 11.2931 53.6024 13.5714 53.6227 13.6424C53.6704 13.8084 56.738 13.8441 56.7939 13.6792C56.8113 13.6286 57.3539 11.302 58.0002 8.50922L59.1752 3.43147L59.1931 8.6014L59.2109 13.7713H60.6351H62.0592V6.88567V0H59.7813H57.5033L56.3973 5.00574C55.7891 7.75898 55.284 10.0038 55.2751 9.99411C55.2661 9.98466 54.8013 7.85628 54.2425 5.26467C53.6837 2.67281 53.1954 0.428232 53.1578 0.276295L53.0889 0H50.7635H48.4381V6.88567ZM75.3328 6.88567V13.7713H76.7228H78.1127V13.4399C78.1127 13.0433 78.073 13.0494 78.5732 13.3689C81.1753 15.0297 84.6868 13.3362 85.455 10.0503C86.5138 5.5213 82.1377 1.76579 78.5036 4.08493L78.1127 4.33415V2.1672V0H76.7228H75.3328V6.88567ZM87.1471 1.28878V2.57756H88.6065H90.0658V1.28878V0H88.6065H87.1471V1.28878ZM92.1507 6.88567V13.7713H93.5754H95V6.88567V0H93.5754H92.1507V6.88567ZM16.8967 3.31682C16.0417 4.48992 15.3173 5.44955 15.287 5.44955C15.2566 5.44955 14.8648 5.03536 14.4161 4.52899L13.6004 3.60869H11.6302C10.5465 3.60869 9.65972 3.63269 9.65972 3.66206C9.65972 3.69142 10.5198 4.62909 11.5709 5.7455C12.622 6.86192 13.4821 7.81465 13.4821 7.86291C13.4821 7.91092 12.5126 9.2352 11.328 10.8056C10.1434 12.3758 9.17367 13.6855 9.17367 13.7159C9.17343 13.7463 9.91612 13.7701 10.8239 13.7685L12.4743 13.7657L13.8985 11.8171C14.6816 10.7451 15.3388 9.86822 15.3588 9.86822C15.379 9.86822 15.7826 10.2796 16.2559 10.7824L17.1167 11.6968L16.8815 12.016C16.7523 12.1917 15.8393 13.4052 14.8525 14.7128C13.8659 16.0208 13.0411 17.1392 13.0196 17.1985C12.9861 17.2912 13.2117 17.3057 14.6387 17.3037L16.2966 17.3011L17.6194 15.4763L18.9421 13.6513L21.4068 16.3185L23.8717 18.9857L25.912 18.9929L27.9526 19L24.3628 15.1615C22.3885 13.0502 20.7824 11.2949 20.7935 11.2607C20.8046 11.2267 22.0646 9.52273 23.5936 7.47452C25.1226 5.42605 26.3839 3.71849 26.3966 3.67942C26.4111 3.63524 25.792 3.60869 24.7592 3.60869H23.0986L21.0282 6.42552C19.8893 7.97476 18.937 9.25052 18.9119 9.26099C18.8869 9.2712 18.4792 8.86825 18.0061 8.36571L17.1456 7.45179L19.3968 4.44855C20.6349 2.79691 21.6887 1.3853 21.7386 1.31176C21.8256 1.18383 21.7586 1.17847 20.1402 1.18128L18.451 1.18408L16.8967 3.31682ZM29.7787 3.4639C26.7366 3.95878 24.8002 7.24674 25.7347 10.3304C27.1781 15.0941 33.7579 15.2325 35.3763 10.5332C36.6937 6.7082 33.6288 2.83751 29.7787 3.4639ZM41.9718 3.46569C41.4243 3.55123 40.8556 3.79331 40.3375 4.16153L39.8903 4.4792V4.04381V3.60869H38.535H37.18V8.69001V13.7713H38.6047H40.0293V10.7285C40.0293 8.26382 40.0486 7.61675 40.1315 7.32258C40.5556 5.81624 42.574 5.63979 43.2355 7.05088C43.3996 7.40046 43.3998 7.4071 43.4205 10.5863L43.4413 13.7713H44.8625H46.2838L46.2828 10.2916C46.2819 7.44719 46.2626 6.72581 46.1768 6.33972C45.7175 4.27568 44.0567 3.14036 41.9718 3.46569ZM67.8645 3.46467C64.5107 4.02236 62.6414 7.78094 64.1118 11.0097C66.331 15.8813 73.3298 14.4851 73.7711 9.08249C74.0463 5.71282 71.1146 2.92433 67.8645 3.46467ZM87.1471 8.69001V13.7713H88.6065H90.0658V8.69001V3.60869H88.6065H87.1471V8.69001ZM31.4328 6.37649C32.5304 6.7728 33.1854 8.30621 32.7827 9.53677C32.0733 11.7047 29.1512 11.718 28.4485 9.55669C27.7938 7.54372 29.5329 5.6906 31.4328 6.37649ZM69.2547 6.29886C70.7107 6.69568 71.4194 8.38486 70.7432 9.84677C69.6916 12.121 66.4182 11.2842 66.423 8.74261C66.4264 7.06493 67.7797 5.89693 69.2547 6.29886ZM81.4211 6.49983C82.9809 7.35016 83.1016 9.70786 81.6387 10.751C79.7764 12.0788 77.3715 10.0493 78.1698 7.82308C78.6506 6.48195 80.2181 5.84407 81.4211 6.49983Z" fill="black"/>
</svg>
