<svg width="61" height="18" viewBox="0 0 61 18" fill="none" xmlns="http://www.w3.org/2000/svg">
<path d="M56.4719 0.217401C53.8272 0.217401 51.992 1.91027 51.992 4.19474C51.992 6.17195 53.1305 7.77006 55.7526 8.66558C58.1684 9.48915 58.6554 10.901 58.6554 12.1723C58.6554 14.0286 56.9847 16.0058 53.8949 16.0058C52.5951 16.0058 51.5727 15.7933 50.7148 15.3228L50.6922 15.3489L52.7338 17.1823C53.1305 17.5353 53.7336 17.8882 55.1495 17.8882C58.4716 17.8882 60.8841 15.1136 60.8841 12.1723C60.8841 8.14593 57.5653 6.92363 56.2881 6.47587C55.3591 6.14579 54.2206 5.53467 54.2206 4.24048C54.2206 3.13586 55.056 2.45279 56.4719 2.45279C57.82 2.45279 58.9585 3.113 59.3294 3.113C59.9552 3.113 60.4454 2.61621 60.4454 1.98222C60.4454 1.53446 60.2132 1.15859 59.7939 0.969074C59.5391 0.851385 58.0072 0.217401 56.4719 0.217401ZM38.662 0.335026C38.0363 0.335026 37.5461 0.82852 37.5461 1.4397V12.7115H39.7521V2.57048H41.1939C44.7223 2.57048 47.5798 5.46601 47.5798 9.04139C47.5798 12.6167 44.7223 15.5124 41.1939 15.5124H36.1786C36.014 15.5124 35.8528 15.4894 35.7141 15.4175L37.7106 17.4405C37.8944 17.6301 38.1749 17.7477 38.4523 17.7477H41.1939C45.9317 17.7477 49.7859 13.8423 49.7859 9.04139C49.7859 4.21761 45.9317 0.335026 41.1939 0.335026H38.662ZM22.5938 0.335026C21.9648 0.335026 21.4778 0.82852 21.4778 1.4397V12.7115H23.6839V2.57048H25.1223C28.654 2.57048 31.5084 5.46601 31.5084 9.04139C31.5084 12.6167 28.654 15.5124 25.1223 15.5124H20.1071C19.9458 15.5124 19.7813 15.4894 19.6427 15.4175L21.6391 17.4405C21.8261 17.6301 22.1035 17.7477 22.3841 17.7477H25.1223C29.8603 17.7477 33.7145 13.8423 33.7145 9.04139C33.7145 4.21761 29.8603 0.335026 25.1223 0.335026H22.5938ZM9.28634 0.217401C4.64194 0.217401 2.5971 3.9823 2.5971 6.68831C2.5971 12.571 7.1512 12.9011 7.66078 12.9239V12.9011C6.05783 12.4305 4.43234 10.548 4.43234 7.86488C4.43234 4.68817 6.45456 2.45279 9.33149 2.45279C12.3503 2.45279 15.4402 5.20454 15.4402 8.99559C15.4402 12.2409 13.0244 15.7247 8.05429 15.7247C4.24844 15.7247 0.532953 13.1135 0.136284 8.71132H0.113678V8.99559C0.113678 13.911 4.03883 17.8882 8.89284 17.8882C13.7211 17.8882 17.6462 13.911 17.6462 8.99559C17.6462 3.9823 13.5824 0.217401 9.28634 0.217401Z" fill="black"/>
<path d="M56.4719 2.73385C55.2882 2.73385 54.4754 3.27637 54.4754 4.17183C54.4754 4.78295 54.6851 5.11302 54.9399 5.37127C55.3591 5.15882 55.9397 4.80588 57.0782 5.04113C57.6104 5.13596 58.0072 4.9954 58.2619 4.76009L59.8391 3.3221L59.8165 3.29924C59.6778 3.34827 59.5166 3.394 59.3294 3.394C58.7941 3.394 57.7749 2.73385 56.4719 2.73385ZM53.4788 0.759876C51.5727 1.60631 50.2729 3.51169 50.2729 5.72421C50.2729 10.0545 54.8463 10.9957 55.3591 11.1592C56.0559 11.4173 56.1719 11.8879 56.1719 12.1723C56.1719 12.6657 55.5204 13.4664 53.8949 13.4664C52.7564 13.4664 52.3177 13.2769 51.8985 13.1134C51.7598 13.0416 51.5953 12.9958 51.4341 12.9958C50.8083 12.9958 50.3181 13.4893 50.3181 14.1233C50.3181 14.5482 50.5503 14.9241 50.9244 15.1136C51.4792 15.3946 52.2468 15.7247 53.8949 15.7247C56.8203 15.7247 58.4006 13.888 58.4006 12.1723C58.4006 10.8062 57.7749 9.65246 55.6591 8.92372C52.9209 7.9596 51.7372 6.28959 51.7372 4.1947C51.7372 2.38091 52.7564 1.29917 53.5014 0.782742L53.4788 0.759876ZM35.3658 2.99526C35.1788 3.18161 35.0626 3.46589 35.0626 3.76987V14.1005C35.0626 14.7345 35.5496 15.2313 36.1786 15.2313H41.1939C44.5611 15.2313 47.2992 12.4533 47.2992 9.04134C47.2992 5.62945 44.5611 2.85154 41.1939 2.85154H40.0327V5.08693H41.1939C43.3515 5.08693 45.0932 6.85169 45.0932 9.04134C45.0932 11.231 43.3515 12.9958 41.1939 12.9958H37.2687V1.43966C37.2687 1.2763 37.3139 1.11281 37.3622 0.969029L35.3658 2.99526ZM19.2943 2.99526C19.1104 3.18161 18.9944 3.46589 18.9944 3.76987V14.1005C18.9944 14.7345 19.4813 15.2313 20.1071 15.2313H25.1223C28.4895 15.2313 31.231 12.4533 31.231 9.04134C31.231 5.62945 28.4895 2.85154 25.1223 2.85154H23.9613V5.08693H25.1223C27.2833 5.08693 29.025 6.85169 29.025 9.04134C29.025 11.231 27.2833 12.9958 25.1223 12.9958H21.2004V1.43966C21.2004 1.2763 21.2456 1.11281 21.2908 0.969029L19.2943 2.99526ZM6.33843 0.498466C3.17768 1.46582 0.391052 4.40715 0.391052 8.10015C0.391052 12.3356 3.9227 15.4665 8.0543 15.4665C12.8148 15.4665 15.1627 12.1723 15.1627 8.99561C15.1627 5.39414 12.2342 2.73385 9.3315 2.73385C6.47711 2.73385 4.71294 4.96924 4.71294 7.86484C4.71294 8.43022 4.78063 8.82896 4.80324 8.94658H4.82901C4.87416 6.7112 6.66095 4.87778 8.89285 4.87778C11.028 4.87778 12.9567 6.68833 12.9567 8.99561C12.9567 11.1362 11.3311 13.2311 8.33489 13.2311C5.31605 13.2311 2.31975 11.4663 2.31975 6.68833C2.31975 4.12281 3.99046 1.55735 6.36104 0.524561L6.33843 0.498466Z" fill="black"/>
</svg>
