<svg width="83" height="15" viewBox="0 0 83 15" fill="none" xmlns="http://www.w3.org/2000/svg">
<path d="M75.6044 15C80.9292 15 82.704 12.2272 82.704 8.67724V0.394345H78.5627V8.67724C78.5627 10.4521 77.7964 11.6355 75.6044 11.6355C73.4124 11.6355 72.6463 10.4521 72.6463 8.67724V0.394345H68.5047V8.67724C68.5047 12.2272 70.2796 15 75.6044 15Z" fill="black"/>
<path d="M54.858 6.06542C55.0541 5.62725 55.3219 5.24719 55.6618 4.92445C56.0017 4.60191 56.3937 4.35117 56.8371 4.17262C57.2809 3.99407 57.7505 3.90489 58.246 3.90489C58.7415 3.90489 59.2113 3.99407 59.6549 4.17262C60.0985 4.35117 60.4874 4.60191 60.8217 4.92445C61.1558 5.24719 61.4209 5.62725 61.6168 6.06542C61.8127 6.50339 61.9106 6.98152 61.9106 7.50018C61.9106 8.01864 61.8127 8.49676 61.6168 8.93474C61.4209 9.37271 61.1558 9.75297 60.8217 10.0755C60.4874 10.3983 60.0985 10.6488 59.6549 10.8275C59.2113 11.0061 58.7415 11.0958 58.246 11.0958C57.7505 11.0958 57.2809 11.0061 56.8371 10.8275C56.3937 10.6488 56.0017 10.3983 55.6618 10.0755C55.3219 9.75297 55.0541 9.37271 54.858 8.93474C54.6621 8.49676 54.5642 8.01864 54.5642 7.50018C54.5642 6.98152 54.6621 6.50339 54.858 6.06542ZM50.9539 10.4494C51.3436 11.3601 51.8868 12.1548 52.584 12.8333C53.2812 13.5114 54.1137 14.042 55.081 14.4253C56.0484 14.8085 57.1037 15 58.2468 15C59.4028 15 60.4608 14.8085 61.422 14.4253C62.3831 14.042 63.2092 13.5114 63.9001 12.8333C64.5911 12.1548 65.1316 11.3601 65.5207 10.4494C65.9102 9.53833 66.105 8.55525 66.105 7.50018C66.105 6.44491 65.9102 5.46164 65.5207 4.55095C65.1316 3.64006 64.5911 2.84557 63.9001 2.16709C63.2092 1.4888 62.3831 0.957978 61.422 0.575016C60.4608 0.191668 59.4028 -4.19219e-06 58.2468 -4.19219e-06C57.1037 -4.19219e-06 56.0484 0.191668 55.081 0.575016C54.1137 0.957978 53.2812 1.4888 52.584 2.16709C51.8868 2.84557 51.3436 3.64006 50.9539 4.55095C50.5648 5.46164 50.3698 6.44491 50.3698 7.50018C50.3698 8.55525 50.5648 9.53833 50.9539 10.4494Z" fill="black"/>
<path d="M42.1781 11.4763H48.3185V14.6042H35.3169L42.0444 3.52384H36.4441V0.395869H48.868L42.1781 11.4763Z" fill="black"/>
<path d="M29.3019 8.93477C29.106 9.37293 28.8381 9.753 28.4981 10.0755C28.1582 10.3983 27.7662 10.649 27.3228 10.8276C26.879 11.0061 26.4092 11.0953 25.9139 11.0953C25.4182 11.0953 24.9486 11.0061 24.5052 10.8276C24.0615 10.649 23.6725 10.3983 23.3382 10.0755C23.0041 9.753 22.739 9.37293 22.5433 8.93477C22.3472 8.49679 22.2493 8.01867 22.2493 7.50001C22.2493 6.98135 22.3472 6.50342 22.5433 6.06545C22.739 5.62748 23.0041 5.24722 23.3382 4.92448C23.6725 4.60194 24.0615 4.35139 24.5052 4.17265C24.9486 3.9941 25.4182 3.90434 25.9139 3.90434C26.4092 3.90434 26.879 3.9941 27.3228 4.17265C27.7662 4.35139 28.1582 4.60194 28.4981 4.92448C28.8381 5.24722 29.106 5.62748 29.3019 6.06545C29.4978 6.50342 29.5959 6.98135 29.5959 7.50001C29.5959 8.01867 29.4978 8.49679 29.3019 8.93477ZM33.2058 4.55078C32.8163 3.64009 32.2731 2.84541 31.5759 2.16692C30.8787 1.48883 30.0462 0.958202 29.0789 0.574854C28.1115 0.1917 27.0562 2.63254e-05 25.9131 2.63254e-05C24.7571 2.63254e-05 23.699 0.1917 22.7379 0.574854C21.7768 0.958202 20.9507 1.48883 20.2598 2.16692C19.5688 2.84541 19.0285 3.64009 18.6392 4.55078C18.2497 5.46186 18.0549 6.44494 18.0549 7.50001C18.0549 8.55528 18.2497 9.53855 18.6392 10.4492C19.0285 11.3601 19.5688 12.1546 20.2598 12.8331C20.9507 13.5114 21.7768 14.0422 22.7379 14.4252C23.699 14.8085 24.7571 15 25.9131 15C27.0562 15 28.1115 14.8085 29.0789 14.4252C30.0462 14.0422 30.8787 13.5114 31.5759 12.8331C32.2731 12.1546 32.8163 11.3601 33.2058 10.4492C33.5952 9.53855 33.7901 8.55528 33.7901 7.50001C33.7901 6.44494 33.5952 5.46186 33.2058 4.55078Z" fill="black"/>
<path d="M11.247 8.93477C11.0509 9.37293 10.783 9.753 10.443 10.0755C10.1031 10.3983 9.71128 10.649 9.2679 10.8276C8.82395 11.0061 8.35431 11.0953 7.85901 11.0953C7.36332 11.0953 6.8937 11.0061 6.45012 10.8276C6.00655 10.649 5.61741 10.3983 5.28329 10.0755C4.94916 9.753 4.68414 9.37293 4.48822 8.93477C4.2921 8.49679 4.19443 8.01867 4.19443 7.50001C4.19443 6.98135 4.2921 6.50342 4.48822 6.06545C4.68414 5.62748 4.94916 5.24722 5.28329 4.92448C5.61741 4.60194 6.00655 4.35139 6.45012 4.17265C6.8937 3.9941 7.36332 3.90434 7.85901 3.90434C8.35431 3.90434 8.82395 3.9941 9.2679 4.17265C9.71128 4.35139 10.1031 4.60194 10.443 4.92448C10.783 5.24722 11.0509 5.62748 11.247 6.06545C11.4429 6.50342 11.5408 6.98135 11.5408 7.50001C11.5408 8.01867 11.4429 8.49679 11.247 8.93477ZM15.1509 4.55078C14.7614 3.64009 14.2182 2.84541 13.521 2.16692C12.8236 1.48883 11.9913 0.958202 11.024 0.574854C10.0564 0.1917 9.00134 2.63254e-05 7.85805 2.63254e-05C6.70221 2.63254e-05 5.64405 0.1917 4.68298 0.574854C3.72191 0.958202 2.89557 1.48883 2.20492 2.16692C1.51389 2.84541 0.973425 3.64009 0.584286 4.55078C0.194762 5.46186 0 6.44494 0 7.50001C0 8.55528 0.194762 9.53855 0.584286 10.4492C0.973425 11.3601 1.51389 12.1546 2.20492 12.8331C2.89557 13.5114 3.72191 14.0422 4.68298 14.4252C5.64405 14.8085 6.70221 15 7.85805 15C9.00134 15 10.0564 14.8085 11.024 14.4252C11.9913 14.0422 12.8236 13.5114 13.521 12.8331C14.2182 12.1546 14.7614 11.3601 15.1509 10.4492C15.5403 9.53855 15.7352 8.55528 15.7352 7.50001C15.7352 6.44494 15.5403 5.46186 15.1509 4.55078Z" fill="black"/>
</svg>
