
<svg width="1226" height="711" fill="none" xmlns="http://www.w3.org/2000/svg"><g clip-path="url(#clip0)"><path fill="#F5F1E9" d="M0 0h1226v711H0z"/><path opacity=".1" fill-rule="evenodd" clip-rule="evenodd" d="M0 616l51.084-1.833c51.083-1.834 153.25-5.5 255.416 0 102.167 5.5 204.334 20.166 306.5 23.833 102.167 3.667 204.334-3.667 306.5 0 102.17 3.667 204.33 18.333 255.42 25.667L1226 671v-99H0v44z" fill="url(#paint0_linear)"/><path opacity=".2" fill-rule="evenodd" clip-rule="evenodd" d="M1226 587.667l-51.08 5.222c-51.09 5.222-153.25 15.667-255.42 28.722-102.167 13.056-204.333 28.722-306.5 31.333-102.167 2.612-204.333-7.833-306.5-7.833s-204.333 10.445-255.417 15.667L0 666v-94h1226v15.667z" fill="url(#paint1_linear)"/><path opacity=".4" fill-rule="evenodd" clip-rule="evenodd" d="M0 637.7l51.084-2.433c51.083-2.434 153.25-7.3 255.416-7.3 102.167 0 204.334 4.866 306.5-2.434 102.167-7.3 204.334-26.766 306.5-25.55 102.17 1.217 204.33 23.117 255.42 34.067L1226 645v-73H0v65.7z" fill="url(#paint2_linear)"/><path fill-rule="evenodd" clip-rule="evenodd" d="M1251 1H-23.96v571H-25v32.322l53.167-5.387c53.167-5.387 159.5-16.161 265.833-12.57 58.667 1.982 117.333 8.336 176 14.69 47.667 5.163 95.334 10.326 143 13.143 106.334 6.285 212.667.898 319.001-5.387 106.329-6.284 212.669-13.467 265.829-17.058v-.001l53.17-3.591V1z" fill="url(#paint3_linear)"/></g><defs><linearGradient id="paint0_linear" x1="613" y1="671" x2="613" y2="572" gradientUnits="userSpaceOnUse"><stop stop-color="#CE716F"/><stop offset="1" stop-color="#164194"/></linearGradient><linearGradient id="paint1_linear" x1="613" y1="666" x2="613" y2="572" gradientUnits="userSpaceOnUse"><stop stop-color="#CE716F"/><stop offset="1" stop-color="#164194"/></linearGradient><linearGradient id="paint2_linear" x1="446.5" y1="645" x2="790.732" y2="571.737" gradientUnits="userSpaceOnUse"><stop stop-color="#CE716F"/><stop offset="1" stop-color="#164194"/></linearGradient><linearGradient id="paint3_linear" x1="235.304" y1="81.696" x2="470.119" y2="836.731" gradientUnits="userSpaceOnUse"><stop stop-color="#DE726F"/><stop offset="1" stop-color="#1A4AA6"/></linearGradient><clipPath id="clip0"><path fill="#fff" d="M0 0h1226v711H0z"/></clipPath></defs></svg>